<svg width="240" height="240" viewBox="0 0 240 240" fill="none" xmlns="http://www.w3.org/2000/svg">
<path d="M221.18 120C221.18 178.8 173.906 226.467 115.59 226.467C57.2743 226.467 10 178.8 10 120C10 61.1998 57.2743 13.5328 115.59 13.5328C173.906 13.5328 221.18 61.1998 221.18 120Z" fill="#4343EF"/>
<mask id="mask0_15877_13482" style="mask-type:alpha" maskUnits="userSpaceOnUse" x="88" y="131" width="50" height="54">
<path d="M120.172 134.847L99.9109 131.127L95.7493 138.326C92.5115 143.926 90.3917 150.102 89.5078 156.511L88.8864 161.016C87.8044 172.648 96.3649 182.951 107.998 184.018L109.198 184.128C112.146 184.399 115.113 184.383 118.058 184.08L122.252 183.649C125.936 183.27 129.397 181.702 132.112 179.183C135.197 176.32 137.115 172.416 137.496 168.224L137.639 166.651C138.128 160.455 138.107 154.229 137.576 148.037L136.73 138.18L120.172 134.847Z" fill="url(#paint0_linear_15877_13482)"/>
</mask>
<g mask="url(#mask0_15877_13482)">
<path d="M120.172 134.847L99.9109 131.127L95.7493 138.326C92.5115 143.926 90.3917 150.102 89.5078 156.511L88.8864 161.016C87.8044 172.648 96.3649 182.951 107.998 184.018L109.198 184.128C112.146 184.399 115.113 184.383 118.058 184.08L122.252 183.649C125.936 183.27 129.397 181.702 132.112 179.183C135.197 176.32 137.115 172.416 137.496 168.224L137.639 166.651C138.128 160.455 138.107 154.229 137.576 148.037L136.73 138.18L120.172 134.847Z" fill="url(#paint1_linear_15877_13482)"/>
</g>
<path d="M56.9533 202.091L55.5679 195.56L67.0823 191.395L64.5932 201.766C64.3289 202.868 63.3438 203.644 62.211 203.644H58.8706C57.9449 203.644 57.1454 202.997 56.9533 202.091Z" fill="#D73C6F"/>
<path d="M36.8642 202.091L35.4788 195.559L46.0133 194.335L44.4629 201.699C44.2242 202.833 43.2241 203.644 42.0655 203.644H38.7815C37.8558 203.644 37.0563 202.996 36.8642 202.091Z" fill="#D73C6F"/>
<path d="M135.924 175.715C141.314 164.936 144.009 172.286 148.809 165.48" stroke="#856149" stroke-width="0.983856"/>
<mask id="mask1_15877_13482" style="mask-type:alpha" maskUnits="userSpaceOnUse" x="147" y="158" width="16" height="11">
<path d="M156.857 165.621C153.565 170.349 149.583 167.828 148.003 165.977C147.481 158.374 157.329 158.28 162.655 159.225C162.734 159.239 162.743 159.384 162.671 159.419C161.742 159.872 159.716 161.514 156.857 165.621Z" fill="#856149"/>
</mask>
<g mask="url(#mask1_15877_13482)">
<path d="M156.857 165.621C153.565 170.349 149.583 167.828 148.003 165.977C147.481 158.374 157.329 158.28 162.655 159.225C162.734 159.239 162.743 159.384 162.671 159.419C161.742 159.872 159.716 161.514 156.857 165.621Z" fill="#C7926E"/>
<g style="mix-blend-mode:multiply" opacity="0.4">
<path d="M147.929 166.161C150.315 160.66 158.922 159.467 162.813 159.6C162.654 158.611 160.494 156.746 153.125 157.195C145.756 157.645 146.514 163.387 147.929 166.161Z" fill="url(#paint2_linear_15877_13482)"/>
</g>
</g>
<g clip-path="url(#clip0_15877_13482)">
<path d="M111.99 150.204L107.699 154.493C107.662 154.531 107.662 154.593 107.7 154.63L109.255 156.163C109.293 156.2 109.354 156.2 109.391 156.162L112.038 153.517C112.075 153.48 112.135 153.479 112.173 153.515L113.386 154.659L110.481 157.492C110.443 157.529 110.442 157.591 110.479 157.629L111.99 159.184C112.027 159.221 112.087 159.223 112.126 159.187L113.37 158.031C113.406 157.997 113.463 157.996 113.501 158.03L114.697 159.117C114.735 159.152 114.794 159.15 114.83 159.114L119.098 154.848C119.136 154.81 119.136 154.749 119.098 154.711L117.566 153.18C117.528 153.142 117.467 153.142 117.429 153.18L114.759 155.825C114.722 155.862 114.662 155.863 114.624 155.826L113.411 154.659L116.316 151.849C116.354 151.812 116.355 151.751 116.319 151.713L114.808 150.136C114.771 150.097 114.709 150.096 114.671 150.133L113.452 151.308C113.415 151.343 113.357 151.344 113.319 151.309L112.125 150.202C112.086 150.166 112.027 150.168 111.99 150.204Z" fill="#4343EF"/>
</g>
<path d="M52.8729 138.232L135.924 63.2655L166.548 98.2989L175.857 89.9693" stroke="#00E6B3" stroke-width="2.44989"/>
<path d="M132.494 83.1097L136.181 79.8817L132.942 76.1837L129.255 79.4338L132.494 83.1097ZM163.667 118.707L159.981 121.935L163.129 125.529L166.801 122.473L163.667 118.707ZM230 63.5106L174.242 73.1059L210.431 116.596L230 63.5106ZM49.008 163.222L135.734 86.7855L129.255 79.4338L42.5286 155.87L49.008 163.222ZM128.808 86.3377L159.981 121.935L167.353 115.479L136.181 79.8817L128.808 86.3377ZM166.801 122.473L199.237 95.4834L192.969 87.9507L160.533 114.941L166.801 122.473Z" fill="#00E6B3"/>
<path d="M180.022 66.8068H186.615" stroke="white" stroke-width="0.864628"/>
<path d="M183.319 63.5105V70.1033" stroke="white" stroke-width="0.864628"/>
<path d="M205.991 147.052H210.401" stroke="white" stroke-width="0.578334"/>
<path d="M208.196 144.847V149.257" stroke="white" stroke-width="0.578334"/>
<path d="M50.6682 112.018H53.609" stroke="white" stroke-width="0.385556"/>
<path d="M52.1381 110.548V113.489" stroke="white" stroke-width="0.385556"/>
<path d="M150.134 179.635H156.013" stroke="white" stroke-width="0.771113"/>
<path d="M153.073 176.695V182.575" stroke="white" stroke-width="0.771113"/>
<path d="M168.753 144.847H170.713" stroke="white" stroke-width="0.257037"/>
<path d="M169.733 143.867V145.827" stroke="white" stroke-width="0.257037"/>
<path d="M29.1091 129.657H34.9889" stroke="white" stroke-width="0.771113"/>
<path d="M32.049 126.718V132.597" stroke="white" stroke-width="0.771113"/>
<path d="M66.8374 143.132H69.288" stroke="white" stroke-width="0.321297"/>
<path d="M68.0624 141.907V144.358" stroke="white" stroke-width="0.321297"/>
<path d="M163.068 51.6943C163.122 51.4404 163.473 51.4749 163.476 51.7343L163.505 53.9111C163.542 56.7218 165.39 59.1165 167.974 59.7034L169.976 60.158C170.214 60.2122 170.178 60.5846 169.933 60.5914L167.882 60.6478C165.232 60.7206 162.954 62.71 162.37 65.4597L161.918 67.5892C161.865 67.8431 161.514 67.8086 161.511 67.5491L161.482 65.3724C161.444 62.5617 159.597 60.167 157.012 59.58L155.011 59.1255C154.772 59.0713 154.809 58.6988 155.053 58.6921L157.105 58.6357C159.754 58.5629 162.033 56.5735 162.616 53.8238L163.068 51.6943Z" fill="#FFC31F"/>
<path d="M96.497 63.0682C96.4958 62.9463 96.6601 62.9264 96.6881 63.0451L96.923 64.0405C97.2263 65.3259 98.3175 66.2361 99.5626 66.2422L100.527 66.247C100.642 66.2475 100.663 66.4221 100.551 66.4501L99.6162 66.6848C98.4085 66.9879 97.5661 68.1323 97.5783 69.4528L97.5878 70.4756C97.5889 70.5975 97.4246 70.6174 97.3966 70.4987L97.1618 69.5033C96.8585 68.2179 95.7672 67.3077 94.5222 67.3016L93.558 67.2968C93.443 67.2962 93.4219 67.1217 93.5334 67.0937L94.4686 66.859C95.6762 66.5559 96.5187 65.4115 96.5064 64.0909L96.497 63.0682Z" fill="#FFC31F"/>
<path d="M34.5155 90.9265C34.5239 90.7699 34.7363 90.7575 34.7628 90.9121L34.9845 92.2087C35.2709 93.8829 36.5988 95.1388 38.1965 95.2464L39.4339 95.3297C39.5814 95.3396 39.5946 95.5654 39.4492 95.5924L38.2299 95.8188C36.6554 96.1111 35.4823 97.5126 35.3923 99.2088L35.3225 100.522C35.3142 100.679 35.1017 100.691 35.0753 100.537L34.8535 99.2402C34.5672 97.566 33.2393 96.3101 31.6415 96.2025L30.4041 96.1192C30.2566 96.1093 30.2435 95.8835 30.3888 95.8565L31.6082 95.6301C33.1826 95.3378 34.3558 93.9363 34.4458 92.24L34.5155 90.9265Z" fill="#FFC31F"/>
<mask id="mask2_15877_13482" style="mask-type:alpha" maskUnits="userSpaceOnUse" x="22" y="155" width="56" height="47">
<ellipse cx="49.9333" cy="178.41" rx="27.1938" ry="22.784" fill="#EF437C"/>
</mask>
<g mask="url(#mask2_15877_13482)">
<ellipse cx="49.9333" cy="178.41" rx="27.1938" ry="22.784" fill="#EF437C"/>
<path d="M52.8314 201.391C65.296 198.325 75.1402 182.457 74.432 166.406C89.9877 184.807 67.4734 198.113 52.8314 201.391C52.3589 201.508 51.8827 201.605 51.4031 201.684C51.8694 201.598 52.3461 201.5 52.8314 201.391Z" fill="url(#paint3_linear_15877_13482)"/>
</g>
<path d="M73.1502 169.212C73.287 167.085 74.5669 163.456 78.5924 165.945C83.6243 169.058 75.0644 173.306 76.1269 167.206C76.9768 162.326 78.9893 161.103 79.8893 161.102" stroke="#EF437C" stroke-width="0.501385"/>
<path d="M42.0091 202.091L40.6237 195.559L51.1582 194.335L49.6078 201.699C49.3691 202.833 48.369 203.644 47.2104 203.644H43.9264C43.0007 203.644 42.2012 202.996 42.0091 202.091Z" fill="#EF437C"/>
<path d="M60.8731 202.091L59.4877 195.56L71.0021 191.395L68.513 201.766C68.2487 202.868 67.2636 203.644 66.1308 203.644H62.7904C61.8647 203.644 61.0652 202.997 60.8731 202.091Z" fill="#EF437C"/>
<mask id="mask3_15877_13482" style="mask-type:alpha" maskUnits="userSpaceOnUse" x="169" y="114" width="34" height="34">
<circle cx="185.739" cy="130.719" r="16.3326" fill="#E9AD16"/>
</mask>
<g mask="url(#mask3_15877_13482)">
<circle cx="185.739" cy="130.719" r="16.3326" fill="#F7C028"/>
<g style="mix-blend-mode:lighten">
<path d="M197.988 131.127C198.192 131.535 199.621 139.498 190.639 141.947C193.293 140.722 198.478 136.843 197.988 131.127Z" fill="#FFF68E"/>
</g>
<g style="mix-blend-mode:lighten">
<rect x="160.015" y="126.146" width="36.8051" height="6.44215" transform="rotate(-32.0255 160.015 126.146)" fill="#FEF694" fill-opacity="0.4"/>
</g>
<g style="mix-blend-mode:lighten">
<rect x="163.69" y="133.904" width="36.8051" height="1.35943" transform="rotate(-32.0255 163.69 133.904)" fill="#FEF694" fill-opacity="0.4"/>
</g>
<g style="mix-blend-mode:lighten">
<rect x="166.548" y="135.538" width="36.8051" height="3.32187" transform="rotate(-32.0255 166.548 135.538)" fill="#FEF694" fill-opacity="0.4"/>
</g>
<g style="mix-blend-mode:lighten">
<path d="M173.489 119.491C177.981 116.632 183.779 113.652 193.905 115.612C188.597 113.366 179.206 113.121 173.489 119.491Z" fill="#FFF68E"/>
</g>
<mask id="mask4_15877_13482" style="mask-type:alpha" maskUnits="userSpaceOnUse" x="173" y="118" width="26" height="26">
<circle cx="185.739" cy="130.719" r="12.6577" fill="#F0A110"/>
</mask>
<g mask="url(#mask4_15877_13482)">
<circle cx="185.739" cy="130.719" r="12.6577" fill="#F0A110"/>
<path d="M180.646 118.817C174.411 123.54 170.633 134.12 178.001 141.488C173.97 139.095 168.177 125.807 180.646 118.817Z" fill="#AF361F"/>
</g>
</g>
<g style="mix-blend-mode:overlay" opacity="0.4" clip-path="url(#clip1_15877_13482)">
<g clip-path="url(#clip2_15877_13482)">
<path d="M184.038 125.813L178.941 130.908C178.896 130.953 178.896 131.026 178.942 131.071L180.789 132.891C180.834 132.935 180.906 132.935 180.951 132.891L184.095 129.748C184.139 129.704 184.21 129.703 184.255 129.746L185.696 131.105L182.245 134.47C182.2 134.515 182.199 134.587 182.243 134.633L184.038 136.48C184.082 136.525 184.153 136.527 184.199 136.484L185.677 135.111C185.72 135.07 185.788 135.07 185.832 135.11L187.253 136.401C187.298 136.442 187.368 136.44 187.411 136.397L192.481 131.33C192.526 131.285 192.526 131.212 192.481 131.167L190.661 129.348C190.616 129.303 190.544 129.303 190.499 129.347L187.328 132.49C187.283 132.534 187.212 132.535 187.167 132.491L185.725 131.105L189.177 127.767C189.222 127.723 189.223 127.651 189.18 127.605L187.385 125.732C187.341 125.686 187.268 125.685 187.222 125.729L185.775 127.124C185.731 127.166 185.662 127.167 185.617 127.126L184.198 125.81C184.152 125.768 184.082 125.77 184.038 125.813Z" fill="white"/>
</g>
</g>
<path d="M193.807 114.071C193.821 113.947 193.989 113.947 194.003 114.071L194.119 115.106C194.268 116.443 195.26 117.497 196.518 117.656L197.493 117.779C197.609 117.793 197.609 117.972 197.493 117.987L196.518 118.11C195.26 118.268 194.268 119.322 194.119 120.659L194.003 121.695C193.989 121.818 193.821 121.818 193.807 121.695L193.691 120.659C193.542 119.322 192.55 118.268 191.292 118.11L190.317 117.987C190.201 117.972 190.201 117.793 190.317 117.779L191.292 117.656C192.55 117.497 193.542 116.443 193.691 115.106L193.807 114.071Z" fill="white"/>
<path d="M169.561 128.724C169.568 128.662 169.652 128.662 169.659 128.724L169.717 129.241C169.792 129.91 170.288 130.437 170.917 130.516L171.404 130.577C171.462 130.585 171.462 130.674 171.404 130.682L170.917 130.743C170.288 130.822 169.792 131.349 169.717 132.018L169.659 132.536C169.652 132.597 169.568 132.597 169.561 132.536L169.503 132.018C169.429 131.349 168.933 130.822 168.303 130.743L167.816 130.682C167.758 130.674 167.758 130.585 167.816 130.577L168.303 130.516C168.933 130.437 169.429 129.91 169.503 129.241L169.561 128.724Z" fill="white"/>
<path d="M198.328 138.497C198.331 138.471 198.367 138.471 198.369 138.497L198.394 138.713C198.425 138.993 198.632 139.214 198.896 139.247L199.1 139.272C199.124 139.276 199.124 139.313 199.1 139.316L198.896 139.342C198.632 139.375 198.425 139.595 198.394 139.875L198.369 140.092C198.367 140.118 198.331 140.118 198.328 140.092L198.304 139.875C198.273 139.595 198.065 139.375 197.802 139.342L197.598 139.316C197.574 139.313 197.574 139.276 197.598 139.272L197.802 139.247C198.065 139.214 198.273 138.993 198.304 138.713L198.328 138.497Z" fill="white"/>
<path d="M174.867 140.125C174.87 140.106 174.896 140.106 174.898 140.125L174.916 140.287C174.94 140.497 175.095 140.663 175.293 140.688L175.446 140.707C175.464 140.709 175.464 140.737 175.446 140.739L175.293 140.759C175.095 140.784 174.94 140.949 174.916 141.159L174.898 141.321C174.896 141.341 174.87 141.341 174.867 141.321L174.849 141.159C174.826 140.949 174.67 140.784 174.473 140.759L174.32 140.739C174.302 140.737 174.302 140.709 174.32 140.707L174.473 140.688C174.67 140.663 174.826 140.497 174.849 140.287L174.867 140.125Z" fill="white"/>
<path d="M195.274 138.534C195.283 138.459 195.386 138.459 195.394 138.534L195.465 139.167C195.556 139.984 196.162 140.628 196.931 140.725L197.527 140.8C197.598 140.809 197.598 140.918 197.527 140.927L196.931 141.002C196.162 141.099 195.556 141.743 195.465 142.56L195.394 143.193C195.386 143.268 195.283 143.268 195.274 143.193L195.204 142.56C195.112 141.743 194.506 141.099 193.737 141.002L193.142 140.927C193.071 140.918 193.071 140.809 193.142 140.8L193.737 140.725C194.506 140.628 195.112 139.984 195.204 139.167L195.274 138.534Z" fill="white"/>
<path d="M185.902 146.072V182.82" stroke="black" stroke-width="0.489978"/>
<path d="M186.147 162.731C187.699 159.301 193.105 152.931 202.316 154.891C201.173 159.056 196.339 166.455 186.147 162.731Z" fill="#00E6B3"/>
<path d="M185.657 157.331C184.223 154.161 179.227 148.274 170.713 150.086C171.769 153.935 176.238 160.773 185.657 157.331Z" fill="#00E6B3"/>
<mask id="mask5_15877_13482" style="mask-type:alpha" maskUnits="userSpaceOnUse" x="166" y="172" width="41" height="32">
<path d="M166.31 174.137C166.059 173.203 166.763 172.286 167.729 172.286H204.577C205.54 172.286 206.243 173.196 205.999 174.128L198.267 203.644H174.227L166.31 174.137Z" fill="#FEC618"/>
</mask>
<g mask="url(#mask5_15877_13482)">
<path d="M166.31 174.137C166.059 173.203 166.763 172.286 167.729 172.286H204.577C205.54 172.286 206.243 173.196 205.999 174.128L198.267 203.644H174.227L166.31 174.137Z" fill="#FEC618"/>
<path d="M176.103 203.644C190.018 203.448 200.52 181.84 204.031 171.061C216.183 173.805 211.381 181.677 207.461 185.27L200.356 209.524L176.103 203.644Z" fill="url(#paint4_linear_15877_13482)"/>
</g>
<rect x="19.3094" y="171.796" width="17.1492" height="11.7337" rx="5.86684" fill="#FF71A0"/>
<rect x="23.7194" y="174.735" width="2.2049" height="5.87973" rx="1.10245" fill="#FFACC8"/>
<rect x="29.1091" y="174.735" width="2.2049" height="5.87973" rx="1.10245" fill="#FFACC8"/>
<path d="M155.635 138.292C151.831 138.995 141.985 140.857 134.473 141.787C130.671 142.257 126.567 144.286 125.495 148.077C125.063 149.604 125.568 150.861 128.118 152.829C133.038 156.627 150.001 157.083 158.799 152.712C167.597 148.341 163.141 136.904 155.635 138.292Z" fill="url(#paint5_linear_15877_13482)"/>
<mask id="mask6_15877_13482" style="mask-type:alpha" maskUnits="userSpaceOnUse" x="125" y="138" width="39" height="18">
<path d="M155.635 138.292C151.831 138.995 141.985 140.857 134.473 141.787C130.671 142.257 126.567 144.286 125.495 148.077C125.063 149.604 125.568 150.861 128.118 152.829C133.038 156.627 150.001 157.083 158.799 152.712C167.597 148.341 163.141 136.904 155.635 138.292Z" fill="url(#paint6_linear_15877_13482)"/>
</mask>
<g mask="url(#mask6_15877_13482)">
<path d="M162.915 141.754C160.278 152.56 142.673 153.382 135.555 154.7C156.707 160.972 165.546 149.88 164.436 143.845C164.709 142.43 163.946 137.532 162.915 141.754Z" fill="url(#paint7_linear_15877_13482)"/>
</g>
<mask id="mask7_15877_13482" style="mask-type:alpha" maskUnits="userSpaceOnUse" x="64" y="90" width="26" height="21">
<path d="M65.1375 99.3622C76.3563 98.5482 86.233 92.9874 89.2072 90.532C85.6253 93.4891 83.791 104.184 82.8735 110.008C72.0495 110.194 66.2096 103.859 64.6781 100.051C64.5474 99.7262 64.7881 99.3876 65.1375 99.3622Z" fill="#856149"/>
</mask>
<g mask="url(#mask7_15877_13482)">
<path d="M65.1375 99.3622C76.3563 98.5482 86.233 92.9874 89.2072 90.532C85.6253 93.4891 83.791 104.184 82.8735 110.008C72.0495 110.194 66.2096 103.859 64.6781 100.051C64.5474 99.7262 64.7881 99.3876 65.1375 99.3622Z" fill="#C7926E"/>
<mask id="mask8_15877_13482" style="mask-type:alpha" maskUnits="userSpaceOnUse" x="63" y="98" width="23" height="14">
<path d="M64.3284 99.2589C66.5373 102.136 79.0471 106.677 85.7004 105.72L84.2325 111.323C65.9793 115.459 61.5673 95.6629 64.3284 99.2589Z" fill="#C28E6C"/>
</mask>
<g mask="url(#mask8_15877_13482)">
<path d="M64.3284 99.2589C66.5373 102.136 79.0471 106.677 85.7004 105.72L84.2325 111.323C65.9793 115.459 61.5673 95.6629 64.3284 99.2589Z" fill="#DCA682"/>
<path d="M83.9443 103.987C73.0261 107.938 65.7363 102.379 63.4528 98.3647C64.8532 99.8102 77.2111 102.751 83.9443 103.987L85.2861 104.223C84.8711 104.154 84.4218 104.075 83.9443 103.987Z" fill="url(#paint8_linear_15877_13482)"/>
</g>
<g style="mix-blend-mode:multiply" opacity="0.4">
<path d="M68.0639 109.531C76.4869 111.684 84.3354 100.552 87.2067 94.7173C87.1232 97.7529 86.8828 105.289 86.5889 111.15C86.295 117.01 74.1164 112.513 68.0639 109.531Z" fill="url(#paint9_linear_15877_13482)"/>
</g>
</g>
<mask id="mask9_15877_13482" style="mask-type:alpha" maskUnits="userSpaceOnUse" x="72" y="62" width="26" height="31">
<path d="M73.5001 62.591C78.723 75.5524 91.4959 81.9725 97.0443 83.4822C92.0174 86.7587 89.0534 89.896 87.6424 92.8478C70.7175 88.2943 71.114 70.8389 73.5001 62.591Z" fill="#A09D9B"/>
</mask>
<g mask="url(#mask9_15877_13482)">
<path d="M73.5001 62.591C78.723 75.5524 91.4959 81.9725 97.0443 83.4822C92.0174 86.7587 89.0534 89.896 87.6424 92.8478C70.7175 88.2943 71.114 70.8389 73.5001 62.591Z" fill="#A09D9B"/>
<path d="M66.1903 79.5069C83.7972 93.6649 93.0288 83.6377 98.3717 79.2062C96.9149 84.6686 93.1076 95.9304 89.5323 97.2777C85.9571 98.625 72.8894 85.2784 66.1903 79.5069Z" fill="url(#paint10_linear_15877_13482)"/>
<path d="M91.0515 80.3381C88.0308 82.1634 82.0734 87.3474 82.4097 93.4808" stroke="#5E5E5E" stroke-width="0.271468"/>
<path d="M84.7247 75.8342C81.704 77.6595 75.7466 82.8435 76.0829 88.9769" stroke="#5E5E5E" stroke-width="0.271468"/>
<path d="M81.5607 68.8815C77.2337 68.5035 70.9521 75.3396 71.2884 81.473" stroke="#5E5E5E" stroke-width="0.271468"/>
<path d="M88.6411 79.8548C80.2318 78.7933 72.6246 68.237 73.1443 62.2874L89.3172 79.9139C92.5957 80.3365 97.0504 80.9164 88.6411 79.8548Z" fill="url(#paint11_linear_15877_13482)"/>
</g>
<mask id="mask10_15877_13482" style="mask-type:alpha" maskUnits="userSpaceOnUse" x="155" y="95" width="23" height="22">
<path d="M176.867 108.856C166.331 106.116 157.636 98.8509 155.229 95.8903C158.128 99.4565 158.308 110.47 158.181 116.44C168.459 118.487 175.104 113.144 177.202 109.607C177.378 109.31 177.201 108.943 176.867 108.856Z" fill="#856149"/>
</mask>
<g mask="url(#mask10_15877_13482)">
<path d="M176.867 108.856C166.331 106.116 157.636 98.8509 155.229 95.8903C158.128 99.4565 158.308 110.47 158.181 116.44C168.459 118.487 175.104 113.144 177.202 109.607C177.378 109.31 177.201 108.943 176.867 108.856Z" fill="#C7926E"/>
<mask id="mask11_15877_13482" style="mask-type:alpha" maskUnits="userSpaceOnUse" x="156" y="108" width="23" height="11">
<path d="M177.495 109.28C174.888 111.669 163.071 113.743 156.846 111.7L157.308 117.327C174.132 124.383 180.753 106.295 177.495 109.28Z" fill="#C28E6C"/>
</mask>
<g mask="url(#mask11_15877_13482)">
<path d="M177.495 109.28C174.888 111.669 163.071 113.743 156.846 111.7L157.308 117.327C174.132 124.383 180.753 106.295 177.495 109.28Z" fill="#DCA682"/>
<path d="M157.059 112.38C166.636 117.883 175.846 111.948 178.648 108.563C176.987 109.766 163.271 110.504 157.228 110.451L157.059 112.38Z" fill="url(#paint12_linear_15877_13482)"/>
</g>
<g style="mix-blend-mode:multiply" opacity="0.3">
<path d="M157.181 102.522C161.057 109.256 175.197 114.214 179.556 113.093C179.962 112.829 180.349 112.578 180.712 112.344C180.519 112.701 180.119 112.948 179.556 113.093C173.02 117.333 161.278 124.933 155.563 121.047C149.493 116.92 154.112 106.977 157.181 102.522Z" fill="url(#paint13_linear_15877_13482)"/>
</g>
</g>
<mask id="mask12_15877_13482" style="mask-type:alpha" maskUnits="userSpaceOnUse" x="148" y="69" width="30" height="31">
<path d="M177.134 69.7359C169.275 82.3474 154.714 86.7164 148.625 87.2745C153.285 91.6328 155.377 95.7668 156.31 99.1184C174.875 97.47 178.113 78.8139 177.134 69.7359Z" fill="#A09D9B"/>
</mask>
<g mask="url(#mask12_15877_13482)">
<path d="M177.134 69.7359C169.275 82.3474 154.714 86.7164 148.625 87.2745C153.285 91.6328 155.377 95.7668 156.31 99.1184C174.875 97.47 178.113 78.8139 177.134 69.7359Z" fill="#A09D9B"/>
<path d="M164.185 82.1988C170.764 81.7154 177.106 73.8198 176.944 69.1744L163.657 82.2173C161.092 82.4125 157.606 82.6822 164.185 82.1988Z" fill="url(#paint14_linear_15877_13482)"/>
<path d="M179.878 74.1995C168.636 92.1563 152.519 90.5215 148.978 86.3517C149.362 90.7907 150.778 100.052 153.369 101.587C155.96 103.121 175.972 95.5221 179.878 74.1995Z" fill="url(#paint15_linear_15877_13482)"/>
<path d="M162.338 97.7666C162.045 94.2493 160.049 86.6086 154.406 84.1836" stroke="#5E5E5E" stroke-width="0.271468"/>
<path d="M171.099 94.1719C170.807 90.6547 168.811 83.0139 163.167 80.589" stroke="#5E5E5E" stroke-width="0.271468"/>
<path d="M176.828 87.8598C176.536 84.3426 174.54 76.7019 168.896 74.2769" stroke="#5E5E5E" stroke-width="0.271468"/>
</g>
<mask id="mask13_15877_13482" style="mask-type:alpha" maskUnits="userSpaceOnUse" x="81" y="77" width="78" height="67">
<path d="M87.2301 92.5872L87.2154 92.6075C84.0485 97.3887 82.512 109.176 82.3252 115.908C82.2957 116.97 81.8058 118.055 81.5842 119.094C80.511 124.127 84.195 139.553 119.767 142.66C153.202 145.581 158.923 131.874 157.303 124.29C157.207 123.839 157.243 123.371 157.411 122.942C159.713 117.029 158.49 105.604 157.042 99.6483C155.538 93.4645 145.8 76.5704 119.913 77.0372C98.2512 77.4277 90.1845 88.5234 87.2301 92.5872Z" fill="#FBFBFB"/>
</mask>
<g mask="url(#mask13_15877_13482)">
<path d="M87.2301 92.5872L87.2154 92.6075C84.0485 97.3887 82.512 109.176 82.3252 115.908C82.2957 116.97 81.8058 118.055 81.5842 119.094C80.511 124.127 84.195 139.553 119.767 142.66C153.202 145.581 158.923 131.874 157.303 124.29C157.207 123.839 157.243 123.371 157.411 122.942C159.713 117.029 158.49 105.604 157.042 99.6483C155.538 93.4645 145.8 76.5704 119.913 77.0372C98.2512 77.4277 90.1845 88.5234 87.2301 92.5872Z" fill="url(#paint16_linear_15877_13482)"/>
<path d="M118.45 137.913C152.184 136.063 149.4 87.751 127.328 76.8304C174.526 79.3181 163.838 108.087 162.398 135.484C161.247 157.402 94.8484 142.936 84.7762 130.339C100.13 138.629 111.923 138.796 118.45 137.913Z" fill="url(#paint17_linear_15877_13482)"/>
</g>
<mask id="mask14_15877_13482" style="mask-type:alpha" maskUnits="userSpaceOnUse" x="89" y="94" width="62" height="43">
<path d="M112.58 97.4787L114.048 98.1621C115.94 99.0436 117.948 99.6511 120.012 99.9663L120.416 100.028C123.592 100.513 126.835 100.296 129.917 99.3934L130.97 99.085L134.935 97.9704C136.469 97.5389 138.069 97.3889 139.658 97.5276L140.273 97.5813C142.021 97.734 143.711 98.3172 145.183 99.2722C146.418 100.074 147.479 101.125 148.289 102.355C148.989 103.417 149.493 104.595 149.777 105.834L149.926 106.482C150.262 107.943 150.366 109.448 150.236 110.942L149.993 113.718C149.581 118.441 147.653 122.904 144.497 126.442L143.304 127.78C142.009 129.231 140.527 130.505 138.896 131.567L136.797 132.935C134.088 134.699 131.024 135.844 127.823 136.29L126.064 136.534L124.755 136.656C121.614 136.948 118.448 136.786 115.354 136.176L112.027 135.519C110.75 135.267 109.498 134.902 108.286 134.429L104.478 132.942C103.14 132.42 101.856 131.768 100.646 130.995L100.119 130.659C97.7483 129.146 95.6918 127.19 94.0623 124.897C92.4852 122.679 91.3364 120.185 90.6749 117.545L90.3973 116.437C89.9715 114.738 89.752 112.993 89.7434 111.242L89.7339 109.314C89.7201 106.506 90.4913 103.751 91.9605 101.359L92.251 100.886C93.8959 98.2078 96.4227 96.1867 99.3967 95.1703L99.7562 95.0474C101.301 94.5195 102.939 94.3202 104.565 94.4623C105.974 94.5854 107.349 94.9626 108.624 95.5758L112.58 97.4787Z" fill="#856149"/>
</mask>
<g mask="url(#mask14_15877_13482)">
<path d="M112.402 97.5151L113.869 98.1986C115.762 99.08 117.77 99.6875 119.834 100.003L120.238 100.064C123.413 100.549 126.656 100.333 129.739 99.4298L130.792 99.1214L134.756 98.0068C136.291 97.5753 137.891 97.4253 139.479 97.564L140.094 97.6178C141.842 97.7705 143.532 98.3537 145.004 99.3086C146.24 100.11 147.301 101.162 148.111 102.391C148.81 103.453 149.314 104.631 149.599 105.87L149.747 106.518C150.083 107.98 150.188 109.485 150.057 110.979L149.815 113.755C149.402 118.477 147.474 122.94 144.319 126.478L143.125 127.816C141.83 129.268 140.348 130.542 138.718 131.603L136.618 132.971C133.91 134.735 130.846 135.881 127.644 136.326L125.885 136.571L124.576 136.692C121.436 136.984 118.27 136.823 115.176 136.212L111.848 135.555C110.572 135.304 109.32 134.939 108.108 134.465L104.299 132.978C102.961 132.456 101.678 131.804 100.467 131.031L99.9407 130.695C97.5699 129.182 95.5133 127.226 93.8838 124.934C92.3068 122.715 91.1579 120.222 90.4964 117.581L90.2188 116.473C89.7931 114.774 89.5735 113.03 89.5649 111.278L89.5554 109.35C89.5416 106.543 90.3128 103.788 91.782 101.395L92.0726 100.922C93.7174 98.2442 96.2442 96.2231 99.2183 95.2067L99.5778 95.0839C101.122 94.556 102.76 94.3567 104.386 94.4987C105.796 94.6218 107.171 94.9991 108.446 95.6122L112.402 97.5151Z" fill="#C7926E"/>
<path d="M111.166 94.3137C101.754 94.433 91.9453 103.78 92.6797 114.09C90.8582 106.347 92.0336 91.2255 111.166 94.3137Z" fill="url(#paint18_linear_15877_13482)"/>
<g style="mix-blend-mode:overlay" opacity="0.5">
<path d="M148.717 106.494C144.377 123.419 133.665 134.991 123.736 135.105C132.696 135.478 150.124 129.071 148.717 106.494Z" fill="url(#paint19_linear_15877_13482)"/>
</g>
<path d="M133.028 104.092C131.221 101.939 128.165 104.521 126.453 106.576C126.058 107.051 126.381 107.725 126.999 107.713C130.744 107.638 134.676 106.055 133.028 104.092Z" fill="#604533"/>
<path d="M107.391 101.751C109.433 100.037 111.86 102.915 113.139 105.127C113.448 105.662 113.013 106.269 112.407 106.147C108.915 105.444 105.525 103.317 107.391 101.751Z" fill="#604533"/>
<path d="M110.106 118.828L110.418 119.608C110.473 119.746 110.491 119.897 110.469 120.045C110.451 120.162 110.409 120.274 110.346 120.373L110.291 120.46C109.96 120.981 110.033 121.662 110.467 122.102L110.582 122.218C110.647 122.283 110.717 122.343 110.792 122.395L111.022 122.557C111.614 122.972 112.293 123.243 113.008 123.349L113.115 123.365C113.658 123.446 114.211 123.439 114.752 123.344L114.781 123.339L115.576 123.245C116.068 123.186 116.566 123.194 117.056 123.267C117.546 123.34 118.024 123.478 118.478 123.677L118.741 123.793C119.053 123.93 119.382 124.025 119.718 124.075C120.439 124.183 121.176 124.082 121.841 123.786L122.056 123.691C122.309 123.578 122.543 123.424 122.746 123.235L122.87 123.12C123.006 122.994 123.119 122.844 123.203 122.678L123.248 122.591C123.388 122.315 123.425 121.998 123.354 121.697C123.316 121.535 123.309 121.368 123.333 121.203L123.358 121.037C123.396 120.779 123.481 120.53 123.608 120.301L123.623 120.273C123.855 119.856 123.954 119.378 123.908 118.903L123.876 118.574C123.837 118.173 123.69 117.791 123.45 117.467C123.099 116.994 122.575 116.679 121.992 116.592L121.571 116.529C121.121 116.462 120.662 116.49 120.224 116.612L119.6 116.784L119.075 116.956C118.657 117.092 118.225 117.177 117.786 117.208C117.395 117.236 116.997 117.22 116.61 117.162C116.026 117.075 115.453 116.893 114.927 116.626L114.19 116.252L113.166 115.809C112.585 115.558 111.927 115.556 111.345 115.804C110.716 116.073 110.238 116.609 110.042 117.265L110.036 117.285C109.885 117.792 109.909 118.336 110.106 118.828Z" fill="#FCA988"/>
<path d="M118.769 120.641C119.328 119.543 120.395 118.25 121.563 119.273C122.923 120.464 120.267 120.681 118.769 120.641Z" fill="#C77452"/>
<path d="M118.537 121.155C118.6 120.997 118.678 120.821 118.769 120.641M118.769 120.641C119.328 119.543 120.395 118.25 121.563 119.273C122.923 120.464 120.267 120.681 118.769 120.641Z" stroke="#B46646" stroke-width="0.271468"/>
<path d="M114.697 120.115C114.487 118.924 113.854 117.402 112.463 118.028C110.843 118.758 113.277 119.724 114.697 120.115Z" fill="#C77452"/>
<path d="M114.768 120.666C114.755 120.498 114.731 120.311 114.697 120.115M114.697 120.115C114.487 118.924 113.854 117.402 112.463 118.028C110.843 118.758 113.277 119.724 114.697 120.115Z" stroke="#B46646" stroke-width="0.271468"/>
<circle cx="141.992" cy="119.532" r="1.08621" transform="rotate(4.99209 141.992 119.532)" fill="#FFF5F5" fill-opacity="0.2"/>
<path d="M132.345 130.136C137.38 125.535 139.277 121.913 140.133 122.096C141.203 122.326 141.213 125.325 132.345 130.136Z" fill="#FFF5F5" fill-opacity="0.2"/>
<path d="M112.445 97.4668L113.913 98.1502C115.805 99.0317 117.813 99.6392 119.877 99.9544L120.281 100.016C123.457 100.501 126.7 100.284 129.782 99.3815L130.835 99.0731L134.8 97.9585C136.334 97.527 137.934 97.377 139.523 97.5157L140.138 97.5694C141.886 97.7221 143.576 98.3053 145.048 99.2603C146.283 100.062 147.344 101.113 148.154 102.343C148.854 103.405 149.358 104.583 149.642 105.822L149.791 106.47C150.127 107.931 150.231 109.437 150.101 110.931L149.858 113.706C149.446 118.429 147.518 122.892 144.362 126.43L143.169 127.768C141.874 129.22 140.392 130.493 138.761 131.555L136.662 132.923C133.953 134.687 130.889 135.833 127.688 136.278L125.929 136.522L124.62 136.644C121.479 136.936 118.313 136.774 115.219 136.164L111.892 135.507C110.615 135.255 109.363 134.89 108.151 134.417L104.343 132.93C103.005 132.408 101.721 131.756 100.511 130.983L99.9841 130.647C97.6133 129.134 95.5568 127.178 93.9273 124.885C92.3502 122.667 91.2014 120.173 90.5399 117.533L90.2623 116.425C89.8365 114.726 89.617 112.982 89.6084 111.23L89.5989 109.302C89.5851 106.494 90.3563 103.739 91.8255 101.347L92.116 100.874C93.7609 98.1959 96.2877 96.1748 99.2617 95.1584L99.6212 95.0355C101.166 94.5076 102.804 94.3083 104.43 94.4504C105.839 94.5735 107.214 94.9507 108.489 95.5639L112.445 97.4668Z" stroke="url(#paint20_linear_15877_13482)" stroke-width="4.07202"/>
<path d="M136.445 113.276L127.265 115.189L135.306 119.548" stroke="#252525" stroke-width="0.979955"/>
<path d="M100.964 108.729L109.248 113.123L100.31 115.07" stroke="#252525" stroke-width="0.925514"/>
<path d="M113.464 97.4045L117.859 98.5655L123.874 99.2772C125.433 99.4618 127.008 99.4787 128.571 99.3278L131.853 99.0109L136.084 98.6269C137.381 98.5092 138.687 98.507 139.985 98.6203L141.674 98.7679C143.028 98.8862 144.362 99.1717 145.646 99.6179L146.802 100.019C147.56 100.283 148.274 100.656 148.923 101.127L149.485 101.535C150.074 101.962 150.563 102.512 150.919 103.147C151.412 104.027 151.629 105.036 151.541 106.041L151.492 106.6C151.288 108.933 149.907 111 147.83 112.081L144.821 113.647C144.009 114.069 143.155 114.405 142.272 114.649L137.863 115.865C136.11 116.349 134.303 116.614 132.484 116.653L128.67 116.734L122.676 116.729L112.715 115.34L104.967 113.563L101.108 112.24C99.6306 111.734 98.2271 111.033 96.9348 110.155L95.5434 109.211C94.3533 108.403 93.353 107.346 92.6118 106.113L92.1109 105.281C91.6931 104.586 91.4326 103.808 91.3479 103.001C91.1499 101.118 91.9265 99.2632 93.4076 98.0828L94.1179 97.5168C95.1629 96.6839 96.4189 96.1581 97.7456 95.998L100.956 95.6107C102.233 95.4566 103.523 95.4354 104.804 95.5473L105.523 95.6102C106.821 95.7235 108.107 95.9521 109.364 96.293L113.464 97.4045Z" fill="url(#paint21_linear_15877_13482)"/>
</g>
<path d="M42.5392 167.876L38.7156 170.186L43.0188 170.875" stroke="#252525" stroke-width="0.979956"/>
<mask id="mask15_15877_13482" style="mask-type:alpha" maskUnits="userSpaceOnUse" x="107" y="123" width="20" height="10">
<path d="M125.378 125.761C117.244 127.187 110.73 125.158 108.129 123.779C107.957 123.688 107.743 123.742 107.664 123.918C106.903 125.623 107.42 129.145 114.904 131.791C122.098 134.335 125.253 129.861 126.175 126.576C126.31 126.094 125.872 125.675 125.378 125.761Z" fill="white"/>
</mask>
<g mask="url(#mask15_15877_13482)">
<path d="M125.378 125.761C117.244 127.187 110.73 125.158 108.129 123.779C107.957 123.688 107.743 123.742 107.664 123.918C106.903 125.623 107.42 129.145 114.904 131.791C122.098 134.335 125.253 129.861 126.175 126.576C126.31 126.094 125.872 125.675 125.378 125.761Z" fill="white"/>
<path d="M121.083 130.082C119.454 128.71 115.711 126.55 106.99 124.828C107.715 120.321 118.051 122.837 126.417 125C134.783 127.163 123.119 131.796 121.083 130.082Z" fill="url(#paint22_linear_15877_13482)"/>
<path d="M108.256 129.122C110.265 127.833 116.532 126.092 125.524 129.444C123.303 133.011 116.739 137.94 108.256 129.122Z" fill="#FC5A50"/>
</g>
<mask id="mask16_15877_13482" style="mask-type:alpha" maskUnits="userSpaceOnUse" x="70" y="127" width="36" height="24">
<path d="M80.6232 128.209C83.8778 130.05 92.2876 134.852 98.8575 138.067C102.184 139.695 105.294 142.84 105.08 146.642C104.994 148.174 104.136 149.163 101.186 150.158C95.4947 152.079 79.8527 147.153 73.1912 140.388C66.5297 133.624 74.2023 124.578 80.6232 128.209Z" fill="url(#paint23_linear_15877_13482)"/>
</mask>
<g mask="url(#mask16_15877_13482)">
<path d="M80.6232 128.209C83.8778 130.05 92.2876 134.852 98.8575 138.067C102.184 139.695 105.294 142.84 105.08 146.642C104.994 148.174 104.136 149.163 101.186 150.158C95.4947 152.079 79.8527 147.153 73.1912 140.388C66.5297 133.624 74.2023 124.578 80.6232 128.209Z" fill="url(#paint24_linear_15877_13482)"/>
<path d="M90.2554 148.322C72.7172 139.702 72.5322 129.376 68.8494 122.328C69.4817 147.133 81.4305 155.415 87.1715 151.951C88.6928 151.705 92.8068 149.576 90.2554 148.322Z" fill="url(#paint25_linear_15877_13482)"/>
</g>
<mask id="mask17_15877_13482" style="mask-type:alpha" maskUnits="userSpaceOnUse" x="29" y="153" width="12" height="11">
<path d="M30.8608 154.669L29.5991 163.711L40.1336 158.811L32.3487 153.972C31.7467 153.598 30.9588 153.967 30.8608 154.669Z" fill="#EF437C"/>
</mask>
<g mask="url(#mask17_15877_13482)">
<path d="M30.8608 154.669L29.5991 163.711L40.1336 158.811L32.3487 153.972C31.7467 153.598 30.9588 153.967 30.8608 154.669Z" fill="#EF437C"/>
<path d="M31.8907 156.108L31.0691 161.996L37.9288 158.806L32.8595 155.654C32.4675 155.411 31.9545 155.651 31.8907 156.108Z" fill="#FF71A0"/>
</g>
<path d="M43.5635 159.791C44.5434 159.056 58.2628 159.056 61.2027 161.506C58.5895 162.404 50.6682 161.996 43.5635 159.791Z" fill="#FF71A0"/>
<g style="mix-blend-mode:overlay">
<path d="M26.6593 124.758L43.8085 159.791C47.1404 160.967 55.568 162.731 61.2027 161.506L85.2116 143.377L82.2718 124.758C71.7373 121.655 50.5212 115.448 49.9332 115.448C49.3453 115.448 33.519 123.614 26.6593 124.758Z" fill="url(#paint26_linear_15877_13482)"/>
</g>
<mask id="mask18_15877_13482" style="mask-type:alpha" maskUnits="userSpaceOnUse" x="48" y="144" width="14" height="15">
<circle cx="55.181" cy="151.301" r="6.77499" fill="#E9AD16"/>
</mask>
<g mask="url(#mask18_15877_13482)">
<circle cx="55.181" cy="151.301" r="6.77499" fill="#F7C028"/>
<g style="mix-blend-mode:lighten">
<path d="M60.2621 151.47C60.3468 151.64 60.9396 154.943 57.2134 155.959C58.3143 155.451 60.4654 153.842 60.2621 151.47Z" fill="#FFF68E"/>
</g>
<g style="mix-blend-mode:lighten">
<rect x="44.5104" y="149.404" width="15.2673" height="2.6723" transform="rotate(-32.0255 44.5104 149.404)" fill="#FEF694" fill-opacity="0.4"/>
</g>
<g style="mix-blend-mode:lighten">
<rect x="46.0347" y="152.622" width="15.2673" height="0.56391" transform="rotate(-32.0255 46.0347 152.622)" fill="#FEF694" fill-opacity="0.4"/>
</g>
<g style="mix-blend-mode:lighten">
<rect x="47.2202" y="153.3" width="15.2673" height="1.37796" transform="rotate(-32.0255 47.2202 153.3)" fill="#FEF694" fill-opacity="0.4"/>
</g>
<g style="mix-blend-mode:lighten">
<path d="M50.0995 146.643C51.9626 145.458 54.3677 144.221 58.5682 145.034C56.3664 144.103 52.4707 144.001 50.0995 146.643Z" fill="#FFF68E"/>
</g>
<mask id="mask19_15877_13482" style="mask-type:alpha" maskUnits="userSpaceOnUse" x="49" y="146" width="12" height="11">
<circle cx="55.1808" cy="151.301" r="5.25062" fill="#F0A110"/>
</mask>
<g mask="url(#mask19_15877_13482)">
<circle cx="55.1808" cy="151.301" r="5.25062" fill="#F0A110"/>
<path d="M53.0683 146.364C50.4822 148.323 48.9148 152.712 51.9712 155.768C50.2993 154.776 47.896 149.264 53.0683 146.364Z" fill="#AF361F"/>
</g>
</g>
<g style="mix-blend-mode:overlay" opacity="0.4" clip-path="url(#clip3_15877_13482)">
<g clip-path="url(#clip4_15877_13482)">
<path d="M54.4765 149.267L52.3615 151.381C52.3428 151.4 52.3429 151.43 52.3617 151.449L53.1283 152.204C53.1469 152.222 53.1769 152.222 53.1955 152.204L54.5001 150.899C54.5183 150.881 54.5478 150.881 54.5665 150.899L55.1646 151.463L53.7325 152.859C53.7136 152.877 53.7132 152.908 53.7316 152.926L54.4765 153.693C54.4946 153.712 54.5242 153.712 54.5432 153.695L55.1564 153.125C55.1745 153.108 55.2026 153.108 55.2209 153.124L55.8105 153.66C55.8293 153.677 55.8583 153.676 55.8763 153.658L57.9799 151.556C57.9986 151.537 57.9986 151.507 57.9799 151.488L57.2247 150.734C57.2061 150.715 57.1761 150.715 57.1574 150.733L55.8414 152.037C55.823 152.056 55.7934 152.056 55.7748 152.038L55.1766 151.463L56.6087 150.078C56.6276 150.059 56.6281 150.029 56.61 150.01L55.8653 149.233C55.847 149.214 55.8168 149.214 55.7978 149.232L55.1971 149.811C55.1789 149.828 55.1501 149.829 55.1316 149.811L54.5427 149.266C54.5239 149.248 54.4947 149.249 54.4765 149.267Z" fill="white"/>
</g>
</g>
<path d="M58.5281 144.395C58.5338 144.344 58.6038 144.344 58.6095 144.395L58.6575 144.825C58.7194 145.38 59.131 145.817 59.6531 145.883L60.0575 145.934C60.1057 145.94 60.1057 146.014 60.0575 146.02L59.6531 146.071C59.131 146.137 58.7194 146.574 58.6575 147.129L58.6095 147.559C58.6038 147.61 58.5338 147.61 58.5281 147.559L58.4801 147.129C58.4182 146.574 58.0065 146.137 57.4844 146.071L57.0801 146.02C57.0319 146.014 57.0319 145.94 57.0801 145.934L57.4844 145.883C58.0065 145.817 58.4182 145.38 58.4801 144.825L58.5281 144.395Z" fill="white"/>
<path d="M48.4703 150.473C48.4732 150.448 48.5082 150.448 48.511 150.473L48.535 150.688C48.566 150.966 48.7718 151.184 49.0329 151.217L49.235 151.243C49.2591 151.246 49.2591 151.283 49.235 151.286L49.0329 151.311C48.7718 151.344 48.566 151.563 48.535 151.84L48.511 152.055C48.5082 152.081 48.4732 152.081 48.4703 152.055L48.4464 151.84C48.4154 151.563 48.2096 151.344 47.9485 151.311L47.7463 151.286C47.7222 151.283 47.7222 151.246 47.7463 151.243L47.9485 151.217C48.2096 151.184 48.4154 150.966 48.4464 150.688L48.4703 150.473Z" fill="white"/>
<path d="M60.4032 154.527C60.4044 154.517 60.419 154.517 60.4202 154.527L60.4302 154.617C60.4432 154.733 60.5293 154.825 60.6385 154.839L60.7231 154.849C60.7331 154.851 60.7331 154.866 60.7231 154.867L60.6385 154.878C60.5293 154.892 60.4432 154.983 60.4302 155.099L60.4202 155.189C60.419 155.2 60.4044 155.2 60.4032 155.189L60.3931 155.099C60.3802 154.983 60.2941 154.892 60.1849 154.878L60.1003 154.867C60.0903 154.866 60.0903 154.851 60.1003 154.849L60.1849 154.839C60.2941 154.825 60.3802 154.733 60.3931 154.617L60.4032 154.527Z" fill="white"/>
<path d="M50.6712 155.203C50.6721 155.195 50.683 155.195 50.6839 155.203L50.6915 155.27C50.7012 155.357 50.7657 155.426 50.8476 155.436L50.9111 155.444C50.9186 155.445 50.9186 155.457 50.9111 155.458L50.8476 155.466C50.7657 155.476 50.7012 155.545 50.6915 155.632L50.6839 155.699C50.683 155.707 50.6721 155.707 50.6712 155.699L50.6636 155.632C50.6539 155.545 50.5893 155.476 50.5074 155.466L50.444 155.458C50.4365 155.457 50.4365 155.445 50.444 155.444L50.5074 155.436C50.5893 155.426 50.6539 155.357 50.6636 155.27L50.6712 155.203Z" fill="white"/>
<path d="M59.1365 154.543C59.14 154.512 59.1827 154.512 59.1862 154.543L59.2155 154.805C59.2534 155.144 59.5049 155.412 59.824 155.452L60.0711 155.483C60.1006 155.487 60.1006 155.532 60.0711 155.536L59.824 155.567C59.5049 155.607 59.2534 155.875 59.2155 156.214L59.1862 156.476C59.1827 156.507 59.14 156.507 59.1365 156.476L59.1072 156.214C59.0693 155.875 58.8177 155.607 58.4987 155.567L58.2516 155.536C58.2221 155.532 58.2221 155.487 58.2516 155.483L58.4987 155.452C58.8177 155.412 59.0693 155.144 59.1072 154.805L59.1365 154.543Z" fill="white"/>
<mask id="mask20_15877_13482" style="mask-type:alpha" maskUnits="userSpaceOnUse" x="43" y="53" width="21" height="22">
<circle cx="53.4077" cy="64.1624" r="10.3703" fill="#E9AD16"/>
</mask>
<g mask="url(#mask20_15877_13482)">
<circle cx="53.4077" cy="64.1624" r="10.3703" fill="#F7C028"/>
<g style="mix-blend-mode:lighten">
<path d="M61.1853 64.4214C61.315 64.6806 62.2224 69.7362 56.5187 71.2917C58.2039 70.514 61.4964 68.051 61.1853 64.4214Z" fill="#FFF68E"/>
</g>
<g style="mix-blend-mode:lighten">
<rect x="37.0745" y="61.2588" width="23.3693" height="4.09042" transform="rotate(-32.0255 37.0745 61.2588)" fill="#FEF694" fill-opacity="0.4"/>
</g>
<g style="mix-blend-mode:lighten">
<rect x="39.4076" y="66.1846" width="23.3693" height="0.863164" transform="rotate(-32.0255 39.4076 66.1846)" fill="#FEF694" fill-opacity="0.4"/>
</g>
<g style="mix-blend-mode:lighten">
<rect x="41.2223" y="67.222" width="23.3693" height="2.10921" transform="rotate(-32.0255 41.2223 67.222)" fill="#FEF694" fill-opacity="0.4"/>
</g>
<g style="mix-blend-mode:lighten">
<path d="M45.6296 57.0328C48.4815 55.218 52.1629 53.3254 58.5925 54.5699C55.2222 53.1439 49.2593 52.9884 45.6296 57.0328Z" fill="#FFF68E"/>
</g>
<mask id="mask21_15877_13482" style="mask-type:alpha" maskUnits="userSpaceOnUse" x="45" y="56" width="17" height="17">
<circle cx="53.4074" cy="64.1621" r="8.037" fill="#F0A110"/>
</mask>
<g mask="url(#mask21_15877_13482)">
<circle cx="53.4074" cy="64.1621" r="8.037" fill="#F0A110"/>
<path d="M50.1739 56.6053C46.2155 59.6042 43.8163 66.3217 48.4946 71C45.9355 69.4805 42.2569 61.0437 50.1739 56.6053Z" fill="#AF361F"/>
</g>
</g>
<g style="mix-blend-mode:overlay" opacity="0.4" clip-path="url(#clip5_15877_13482)">
<g clip-path="url(#clip6_15877_13482)">
<path d="M52.3294 61.0484L49.0919 64.2844C49.0633 64.313 49.0635 64.3595 49.0923 64.3879L50.2656 65.5439C50.2942 65.5721 50.3401 65.5719 50.3685 65.5435L52.3654 63.5475C52.3934 63.5196 52.4384 63.5189 52.4671 63.546L53.3826 64.4093L51.1904 66.547C51.1616 66.5751 51.161 66.6212 51.1891 66.6501L52.3293 67.8233C52.357 67.8518 52.4023 67.8529 52.4314 67.8259L53.37 66.9536C53.3978 66.9277 53.4407 66.9275 53.4688 66.953L54.3712 67.773C54.4 67.7992 54.4443 67.7982 54.4719 67.7706L57.692 64.5521C57.7205 64.5236 57.7205 64.4774 57.692 64.4489L56.5359 63.2934C56.5075 63.265 56.4615 63.2649 56.433 63.2932L54.4186 65.2893C54.3904 65.3172 54.3451 65.3175 54.3166 65.29L53.4009 64.4093L55.593 62.2894C55.6219 62.2615 55.6228 62.2155 55.595 62.1865L54.4551 60.9969C54.4271 60.9678 54.3808 60.9668 54.3517 60.9949L53.4323 61.881C53.4044 61.9079 53.3604 61.9083 53.332 61.882L52.4306 61.0465C52.4018 61.0199 52.3571 61.0207 52.3294 61.0484Z" fill="white"/>
</g>
</g>
<path d="M58.531 53.5916C58.5398 53.5132 58.6468 53.5132 58.6556 53.5916L58.729 54.2492C58.8239 55.0983 59.454 55.7677 60.2531 55.8685L60.872 55.9465C60.9458 55.9558 60.9458 56.0696 60.872 56.0789L60.2531 56.1569C59.454 56.2577 58.8239 56.9271 58.729 57.7762L58.6556 58.4338C58.6468 58.5122 58.5398 58.5122 58.531 58.4338L58.4576 57.7762C58.3628 56.9271 57.7327 56.2577 56.9335 56.1569L56.3146 56.0789C56.2408 56.0696 56.2408 55.9558 56.3146 55.9465L56.9335 55.8685C57.7327 55.7677 58.3628 55.0983 58.4576 54.2492L58.531 53.5916Z" fill="white"/>
<path d="M43.1359 62.8954C43.1403 62.8562 43.1938 62.8562 43.1982 62.8954L43.2349 63.2242C43.2823 63.6487 43.5973 63.9834 43.9969 64.0338L44.3064 64.0728C44.3433 64.0775 44.3433 64.1344 44.3064 64.139L43.9969 64.178C43.5973 64.2284 43.2823 64.5631 43.2349 64.9877L43.1982 65.3165C43.1938 65.3557 43.1403 65.3557 43.1359 65.3165L43.0992 64.9877C43.0517 64.5631 42.7367 64.2284 42.3371 64.178L42.0277 64.139C41.9908 64.1344 41.9908 64.0775 42.0277 64.0728L42.3371 64.0338C42.7367 63.9834 43.0517 63.6487 43.0992 63.2242L43.1359 62.8954Z" fill="white"/>
<path d="M61.4012 69.1007C61.403 69.0843 61.4254 69.0843 61.4272 69.1007L61.4426 69.2383C61.4624 69.4159 61.5942 69.5559 61.7613 69.577L61.8908 69.5933C61.9062 69.5952 61.9062 69.619 61.8908 69.621L61.7613 69.6373C61.5942 69.6583 61.4624 69.7984 61.4426 69.976L61.4272 70.1135C61.4254 70.1299 61.403 70.1299 61.4012 70.1135L61.3858 69.976C61.366 69.7984 61.2342 69.6583 61.067 69.6373L60.9376 69.621C60.9222 69.619 60.9222 69.5952 60.9376 69.5933L61.067 69.577C61.2342 69.5559 61.366 69.4159 61.3858 69.2383L61.4012 69.1007Z" fill="white"/>
<path d="M46.5045 70.1347C46.5059 70.1224 46.5227 70.1224 46.5241 70.1347L46.5356 70.2379C46.5505 70.3711 46.6493 70.4761 46.7747 70.4919L46.8718 70.5041C46.8833 70.5056 46.8833 70.5234 46.8718 70.5249L46.7747 70.5371C46.6493 70.5529 46.5505 70.6579 46.5356 70.7911L46.5241 70.8943C46.5227 70.9066 46.5059 70.9066 46.5045 70.8943L46.493 70.7911C46.4782 70.6579 46.3793 70.5529 46.254 70.5371L46.1569 70.5249C46.1453 70.5234 46.1453 70.5056 46.1569 70.5041L46.254 70.4919C46.3793 70.4761 46.4782 70.3711 46.493 70.2379L46.5045 70.1347Z" fill="white"/>
<path d="M59.4623 69.1244C59.4676 69.0765 59.533 69.0765 59.5384 69.1244L59.5833 69.5262C59.6412 70.0451 60.0263 70.4543 60.5147 70.5158L60.8929 70.5635C60.938 70.5692 60.938 70.6387 60.8929 70.6444L60.5147 70.6921C60.0263 70.7536 59.6412 71.1628 59.5833 71.6817L59.5384 72.0835C59.533 72.1314 59.4676 72.1314 59.4623 72.0835L59.4174 71.6817C59.3594 71.1628 58.9744 70.7536 58.486 70.6921L58.1078 70.6444C58.0627 70.6387 58.0627 70.5692 58.1078 70.5635L58.486 70.5158C58.9744 70.4543 59.3594 70.0451 59.4174 69.5262L59.4623 69.1244Z" fill="white"/>
<mask id="mask22_15877_13482" style="mask-type:alpha" maskUnits="userSpaceOnUse" x="38" y="134" width="10" height="10">
<circle cx="43.062" cy="138.85" r="4.66645" fill="#E9AD16"/>
</mask>
<g mask="url(#mask22_15877_13482)">
<circle cx="43.062" cy="138.85" r="4.66645" fill="#F7C028"/>
<g style="mix-blend-mode:lighten">
<path d="M46.5625 138.967C46.6208 139.084 47.0293 141.359 44.4619 142.059C45.2204 141.709 46.7025 140.601 46.5625 138.967Z" fill="#FFF68E"/>
</g>
<g style="mix-blend-mode:lighten">
<rect x="35.7122" y="137.544" width="10.5157" height="1.84061" transform="rotate(-32.0255 35.7122 137.544)" fill="#FEF694" fill-opacity="0.4"/>
</g>
<g style="mix-blend-mode:lighten">
<rect x="36.7622" y="139.76" width="10.5157" height="0.388407" transform="rotate(-32.0255 36.7622 139.76)" fill="#FEF694" fill-opacity="0.4"/>
</g>
<g style="mix-blend-mode:lighten">
<rect x="37.5787" y="140.227" width="10.5157" height="0.949106" transform="rotate(-32.0255 37.5787 140.227)" fill="#FEF694" fill-opacity="0.4"/>
</g>
<g style="mix-blend-mode:lighten">
<path d="M39.562 135.642C40.8453 134.826 42.5019 133.974 45.3951 134.534C43.8785 133.892 41.1953 133.822 39.562 135.642Z" fill="#FFF68E"/>
</g>
<mask id="mask23_15877_13482" style="mask-type:alpha" maskUnits="userSpaceOnUse" x="39" y="135" width="8" height="8">
<circle cx="43.0617" cy="138.85" r="3.6165" fill="#F0A110"/>
</mask>
<g mask="url(#mask23_15877_13482)">
<circle cx="43.0617" cy="138.85" r="3.6165" fill="#F0A110"/>
<path d="M41.6067 135.45C39.8255 136.799 38.7459 139.822 40.851 141.927C39.6995 141.244 38.0442 137.447 41.6067 135.45Z" fill="#AF361F"/>
</g>
</g>
<g style="mix-blend-mode:overlay" opacity="0.4" clip-path="url(#clip7_15877_13482)">
<g clip-path="url(#clip8_15877_13482)">
<path d="M42.5768 137.449L41.12 138.905C41.1071 138.918 41.1072 138.939 41.1201 138.952L41.6481 139.472C41.661 139.485 41.6816 139.485 41.6944 139.472L42.593 138.574C42.6056 138.561 42.6258 138.561 42.6387 138.573L43.0507 138.962L42.0643 139.923C42.0513 139.936 42.051 139.957 42.0636 139.97L42.5767 140.498C42.5892 140.511 42.6096 140.511 42.6227 140.499L43.045 140.106C43.0575 140.095 43.0768 140.095 43.0895 140.106L43.4955 140.475C43.5085 140.487 43.5285 140.486 43.5409 140.474L44.9898 139.026C45.0026 139.013 45.0026 138.992 44.9898 138.979L44.4696 138.459C44.4568 138.447 44.4361 138.447 44.4233 138.459L43.5169 139.357C43.5042 139.37 43.4838 139.37 43.471 139.358L43.0589 138.962L44.0453 138.008C44.0583 137.995 44.0587 137.974 44.0462 137.961L43.5333 137.426C43.5207 137.413 43.4999 137.412 43.4868 137.425L43.0731 137.824C43.0605 137.836 43.0407 137.836 43.0279 137.824L42.6223 137.448C42.6094 137.436 42.5892 137.437 42.5768 137.449Z" fill="white"/>
</g>
</g>
<path d="M45.3672 134.094C45.3712 134.059 45.4193 134.059 45.4233 134.094L45.4563 134.39C45.499 134.772 45.7825 135.073 46.1421 135.118L46.4206 135.154C46.4538 135.158 46.4538 135.209 46.4206 135.213L46.1421 135.248C45.7825 135.294 45.499 135.595 45.4563 135.977L45.4233 136.273C45.4193 136.308 45.3712 136.308 45.3672 136.273L45.3342 135.977C45.2915 135.595 45.008 135.294 44.6484 135.248L44.3699 135.213C44.3367 135.209 44.3367 135.158 44.3699 135.154L44.6484 135.118C45.008 135.073 45.2915 134.772 45.3342 134.39L45.3672 134.094Z" fill="white"/>
<path d="M38.4398 138.28C38.4418 138.263 38.4659 138.263 38.4679 138.28L38.4844 138.428C38.5057 138.619 38.6475 138.77 38.8273 138.793L38.9665 138.81C38.9831 138.812 38.9831 138.838 38.9665 138.84L38.8273 138.857C38.6475 138.88 38.5057 139.031 38.4844 139.222L38.4679 139.37C38.4659 139.387 38.4418 139.387 38.4398 139.37L38.4233 139.222C38.402 139.031 38.2602 138.88 38.0804 138.857L37.9412 138.84C37.9246 138.838 37.9246 138.812 37.9412 138.81L38.0804 138.793C38.2602 138.77 38.402 138.619 38.4233 138.428L38.4398 138.28Z" fill="white"/>
<path d="M46.6589 141.073C46.6597 141.065 46.6698 141.065 46.6706 141.073L46.6775 141.135C46.6864 141.214 46.7457 141.277 46.8209 141.287L46.8792 141.294C46.8861 141.295 46.8861 141.306 46.8792 141.307L46.8209 141.314C46.7457 141.324 46.6864 141.387 46.6775 141.467L46.6706 141.528C46.6698 141.536 46.6597 141.536 46.6589 141.528L46.652 141.467C46.643 141.387 46.5837 141.324 46.5085 141.314L46.4503 141.307C46.4433 141.306 46.4433 141.295 46.4503 141.294L46.5085 141.287C46.5837 141.277 46.643 141.214 46.652 141.135L46.6589 141.073Z" fill="white"/>
<path d="M39.9556 141.538C39.9563 141.532 39.9638 141.532 39.9644 141.538L39.9696 141.584C39.9763 141.644 40.0208 141.691 40.0772 141.699L40.1209 141.704C40.1261 141.705 40.1261 141.713 40.1209 141.713L40.0772 141.719C40.0208 141.726 39.9763 141.773 39.9696 141.833L39.9644 141.88C39.9638 141.885 39.9563 141.885 39.9556 141.88L39.9505 141.833C39.9438 141.773 39.8993 141.726 39.8429 141.719L39.7992 141.713C39.794 141.713 39.794 141.705 39.7992 141.704L39.8429 141.699C39.8993 141.691 39.9438 141.644 39.9505 141.584L39.9556 141.538Z" fill="white"/>
<path d="M45.7866 141.083C45.789 141.062 45.8184 141.062 45.8208 141.083L45.841 141.264C45.8671 141.498 46.0404 141.682 46.2601 141.709L46.4303 141.731C46.4506 141.733 46.4506 141.765 46.4303 141.767L46.2601 141.789C46.0404 141.816 45.8671 142.001 45.841 142.234L45.8208 142.415C45.8184 142.436 45.789 142.436 45.7866 142.415L45.7664 142.234C45.7403 142.001 45.567 141.816 45.3473 141.789L45.1771 141.767C45.1568 141.765 45.1568 141.733 45.1771 141.731L45.3473 141.709C45.567 141.682 45.7403 141.498 45.7664 141.264L45.7866 141.083Z" fill="white"/>
<mask id="mask24_15877_13482" style="mask-type:alpha" maskUnits="userSpaceOnUse" x="52" y="124" width="9" height="9">
<circle cx="56.5397" cy="128.378" r="3.96016" transform="rotate(0.674199 56.5397 128.378)" fill="#E9AD16"/>
</mask>
<g mask="url(#mask24_15877_13482)">
<circle cx="56.5397" cy="128.378" r="3.96016" transform="rotate(0.674199 56.5397 128.378)" fill="#F7C028"/>
<g style="mix-blend-mode:lighten">
<path d="M59.5089 128.512C59.5573 128.611 59.8812 130.546 57.6956 131.115C58.3427 130.826 59.6115 129.9 59.5089 128.512Z" fill="#FFF68E"/>
</g>
<g style="mix-blend-mode:lighten">
<rect x="50.3159" y="127.196" width="8.92412" height="1.56203" transform="rotate(-31.3513 50.3159 127.196)" fill="#FEF694" fill-opacity="0.4"/>
</g>
<g style="mix-blend-mode:lighten">
<rect x="51.1848" y="129.087" width="8.92412" height="0.32962" transform="rotate(-31.3513 51.1848 129.087)" fill="#FEF694" fill-opacity="0.4"/>
</g>
<g style="mix-blend-mode:lighten">
<rect x="51.873" y="129.491" width="8.92412" height="0.805453" transform="rotate(-31.3513 51.873 129.491)" fill="#FEF694" fill-opacity="0.4"/>
</g>
<g style="mix-blend-mode:lighten">
<path d="M53.6018 125.621C54.6989 124.94 56.1132 124.234 58.5627 124.738C57.2821 124.179 55.0059 124.093 53.6018 125.621Z" fill="#FFF68E"/>
</g>
<mask id="mask25_15877_13482" style="mask-type:alpha" maskUnits="userSpaceOnUse" x="53" y="125" width="7" height="7">
<circle cx="56.5396" cy="128.378" r="3.06912" transform="rotate(0.674199 56.5396 128.378)" fill="#F0A110"/>
</mask>
<g mask="url(#mask25_15877_13482)">
<circle cx="56.5396" cy="128.378" r="3.06912" transform="rotate(0.674199 56.5396 128.378)" fill="#F0A110"/>
<path d="M55.3387 125.478C53.8137 126.605 52.8674 129.159 54.6327 130.967C53.6624 130.375 52.2956 127.137 55.3387 125.478Z" fill="#AF361F"/>
</g>
</g>
<g style="mix-blend-mode:overlay" opacity="0.4" clip-path="url(#clip9_15877_13482)">
<g clip-path="url(#clip10_15877_13482)">
<g clip-path="url(#clip11_15877_13482)">
<path d="M56.1417 127.184L54.891 128.405C54.8799 128.416 54.8798 128.434 54.8907 128.445L55.3335 128.891C55.3443 128.902 55.3618 128.902 55.3728 128.892L56.1443 128.139C56.1551 128.128 56.1723 128.128 56.1831 128.138L56.5288 128.472L55.6821 129.279C55.671 129.289 55.6706 129.307 55.6811 129.318L56.1113 129.771C56.1217 129.782 56.139 129.783 56.1502 129.773L56.5126 129.444C56.5233 129.434 56.5397 129.434 56.5503 129.444L56.8912 129.761C56.9021 129.771 56.919 129.771 56.9297 129.761L58.1737 128.546C58.1847 128.535 58.1849 128.518 58.1742 128.507L57.7379 128.06C57.7272 128.049 57.7096 128.049 57.6986 128.06L56.9204 128.813C56.9096 128.823 56.8923 128.823 56.8815 128.813L56.5358 128.472L57.3824 127.673C57.3935 127.662 57.3941 127.645 57.3836 127.633L56.9537 127.174C56.9431 127.163 56.9254 127.162 56.9142 127.173L56.5592 127.507C56.5484 127.517 56.5316 127.517 56.5209 127.507L56.1804 127.184C56.1695 127.174 56.1525 127.174 56.1417 127.184Z" fill="white"/>
</g>
</g>
</g>
<path d="M58.5436 124.365C58.5473 124.335 58.5882 124.335 58.5912 124.365L58.6162 124.616C58.6486 124.941 58.8862 125.2 59.1909 125.242L59.4269 125.274C59.455 125.278 59.4545 125.322 59.4263 125.325L59.1896 125.352C58.884 125.387 58.6404 125.639 58.6004 125.963L58.5694 126.214C58.5657 126.244 58.5248 126.243 58.5218 126.214L58.4967 125.962C58.4644 125.637 58.2268 125.379 57.9221 125.337L57.6861 125.304C57.658 125.3 57.6585 125.257 57.6867 125.254L57.9234 125.227C58.229 125.192 58.4726 124.939 58.5126 124.615L58.5436 124.365Z" fill="white"/>
<path d="M52.6232 127.848C52.625 127.833 52.6455 127.833 52.647 127.848L52.6595 127.974C52.6757 128.136 52.7945 128.265 52.9468 128.287L53.0648 128.303C53.0789 128.305 53.0786 128.326 53.0645 128.328L52.9462 128.342C52.7934 128.359 52.6716 128.485 52.6516 128.647L52.6361 128.773C52.6342 128.788 52.6138 128.787 52.6123 128.772L52.5998 128.647C52.5836 128.484 52.4648 128.355 52.3124 128.334L52.1944 128.318C52.1804 128.316 52.1806 128.294 52.1947 128.293L52.3131 128.279C52.4659 128.262 52.5877 128.135 52.6077 127.973L52.6232 127.848Z" fill="white"/>
<path d="M59.5698 130.299C59.5706 130.293 59.5791 130.293 59.5797 130.3L59.585 130.352C59.5918 130.42 59.6414 130.474 59.7051 130.483L59.7544 130.49C59.7603 130.49 59.7602 130.5 59.7543 130.5L59.7048 130.506C59.641 130.513 59.59 130.566 59.5817 130.634L59.5752 130.686C59.5744 130.692 59.5659 130.692 59.5653 130.686L59.56 130.633C59.5532 130.566 59.5036 130.512 59.4399 130.503L59.3906 130.496C59.3847 130.495 59.3848 130.486 59.3907 130.485L59.4402 130.48C59.504 130.472 59.555 130.42 59.5633 130.352L59.5698 130.299Z" fill="white"/>
<path d="M53.8769 130.627C53.8774 130.623 53.8838 130.623 53.8843 130.627L53.8882 130.667C53.8933 130.718 53.9305 130.758 53.9782 130.765L54.0151 130.77C54.0195 130.77 54.0195 130.777 54.015 130.778L53.978 130.782C53.9302 130.787 53.892 130.827 53.8857 130.878L53.8809 130.917C53.8803 130.922 53.8739 130.922 53.8734 130.917L53.8695 130.877C53.8644 130.827 53.8273 130.786 53.7795 130.78L53.7426 130.774C53.7382 130.774 53.7383 130.767 53.7427 130.767L53.7798 130.762C53.8276 130.757 53.8657 130.717 53.872 130.667L53.8769 130.627Z" fill="white"/>
<path d="M58.8295 130.3C58.8318 130.282 58.8568 130.282 58.8586 130.3L58.8739 130.454C58.8937 130.652 59.0389 130.81 59.2251 130.836L59.3693 130.856C59.3865 130.858 59.3862 130.885 59.369 130.887L59.2243 130.903C59.0376 130.924 58.8887 131.079 58.8642 131.277L58.8453 131.43C58.843 131.448 58.818 131.448 58.8162 131.43L58.8009 131.276C58.7811 131.078 58.6359 130.92 58.4497 130.894L58.3055 130.874C58.2883 130.872 58.2886 130.845 58.3058 130.843L58.4505 130.827C58.6372 130.805 58.7861 130.651 58.8106 130.453L58.8295 130.3Z" fill="white"/>
<mask id="mask26_15877_13482" style="mask-type:alpha" maskUnits="userSpaceOnUse" x="119" y="160" width="25" height="40">
<path d="M136.598 199.61C138.291 199.61 148.565 192.929 140.014 183.576C137.687 181.03 136.341 177.617 136.93 174.218C139.403 159.942 133.311 159.006 127.433 162.033C120.864 165.416 119.32 177.809 119.676 183.421C120.032 189.033 133.974 199.61 136.598 199.61Z" fill="url(#paint27_linear_15877_13482)"/>
</mask>
<g mask="url(#mask26_15877_13482)">
<path d="M136.598 199.61C138.291 199.61 148.565 192.929 140.014 183.576C137.687 181.03 136.341 177.617 136.93 174.218C139.403 159.942 133.311 159.006 127.433 162.033C120.864 165.416 119.32 177.809 119.676 183.421C120.032 189.033 133.974 199.61 136.598 199.61Z" fill="url(#paint28_linear_15877_13482)"/>
<path d="M121.225 171.306C122.042 177.839 118.04 184.78 132.739 193.845C138.096 197.148 144.03 195.576 146.939 194.184L148.664 192.865C149.003 192.917 148.304 193.53 146.939 194.184L140.334 199.234L134.454 201.929L118.775 191.395L116.08 181.84L121.225 171.306Z" fill="url(#paint29_linear_15877_13482)"/>
</g>
<mask id="mask27_15877_13482" style="mask-type:alpha" maskUnits="userSpaceOnUse" x="85" y="160" width="25" height="40">
<path d="M102.79 199.12C104.554 199.12 115.637 191.865 105.023 181.891C103.249 180.223 102.32 177.769 102.808 175.384C106.049 159.527 99.7219 158.403 93.6242 161.543C87.0552 164.925 85.5112 177.319 85.8673 182.931C86.2234 188.543 100.166 199.12 102.79 199.12Z" fill="url(#paint30_linear_15877_13482)"/>
</mask>
<g mask="url(#mask27_15877_13482)">
<path d="M102.79 199.12C104.554 199.12 115.637 191.865 105.023 181.891C103.249 180.223 102.32 177.769 102.808 175.384C106.049 159.527 99.7219 158.403 93.6242 161.543C87.0552 164.925 85.5112 177.319 85.8673 182.931C86.2234 188.543 100.166 199.12 102.79 199.12Z" fill="url(#paint31_linear_15877_13482)"/>
<path d="M87.4165 170.816C88.2331 177.349 84.2316 184.29 98.931 193.355C104.287 196.658 110.221 195.086 113.131 193.694L114.855 192.375C115.194 192.427 114.495 193.04 113.131 193.694L106.526 198.744L100.646 201.439L84.9666 190.905L82.2717 181.35L87.4165 170.816Z" fill="url(#paint32_linear_15877_13482)"/>
</g>
<path d="M44.789 173.755L42.8285 175.961" stroke="white" stroke-width="0.489978"/>
<path d="M47.239 174L45.2784 176.206" stroke="white" stroke-width="0.489978"/>
<mask id="mask28_15877_13482" style="mask-type:alpha" maskUnits="userSpaceOnUse" x="44" y="159" width="12" height="12">
<path d="M54.1123 159.099L44.7883 162.714L55.0937 170.18L55.5725 160.151C55.6095 159.376 54.8363 158.819 54.1123 159.099Z" fill="#EF437C"/>
</mask>
<g mask="url(#mask28_15877_13482)">
<path d="M54.1123 159.099L44.7883 162.714L55.0937 170.18L55.5725 160.151C55.6095 159.376 54.8363 158.819 54.1123 159.099Z" fill="#EF437C"/>
<path d="M53.3505 160.77L47.7284 163.063L54.0639 167.487L54.2481 161.393C54.2623 160.922 53.787 160.592 53.3505 160.77Z" fill="#FF71A0"/>
</g>
<rect x="17.3497" y="203.154" width="196.971" height="8.8196" rx="2.93987" fill="#142664"/>
<defs>
<linearGradient id="paint0_linear_15877_13482" x1="112.65" y1="131.127" x2="112.65" y2="183.065" gradientUnits="userSpaceOnUse">
<stop stop-color="#F9F9F9"/>
<stop offset="1" stop-color="#F1F1F2"/>
</linearGradient>
<linearGradient id="paint1_linear_15877_13482" x1="116.57" y1="148.277" x2="112.65" y2="183.065" gradientUnits="userSpaceOnUse">
<stop stop-color="#F9F9F9"/>
<stop offset="1" stop-color="#F8F8F9"/>
</linearGradient>
<linearGradient id="paint2_linear_15877_13482" x1="154.985" y1="160.41" x2="147.571" y2="161.935" gradientUnits="userSpaceOnUse">
<stop stop-color="#6F513D"/>
<stop offset="1" stop-color="#6F513D" stop-opacity="0"/>
</linearGradient>
<linearGradient id="paint3_linear_15877_13482" x1="75.902" y1="177.43" x2="68.7973" y2="194.335" gradientUnits="userSpaceOnUse">
<stop stop-color="#D64374"/>
<stop offset="1" stop-color="#D64374" stop-opacity="0"/>
</linearGradient>
<linearGradient id="paint4_linear_15877_13482" x1="186.637" y1="208.054" x2="201.581" y2="174.736" gradientUnits="userSpaceOnUse">
<stop stop-color="#FEA218"/>
<stop offset="1" stop-color="#FEA218" stop-opacity="0"/>
</linearGradient>
<linearGradient id="paint5_linear_15877_13482" x1="139.226" y1="150.226" x2="161.276" y2="152.475" gradientUnits="userSpaceOnUse">
<stop stop-color="#F9F9F9"/>
<stop offset="1" stop-color="#E8E8E9"/>
<stop offset="1" stop-color="#F1F1F2"/>
</linearGradient>
<linearGradient id="paint6_linear_15877_13482" x1="124.165" y1="148.522" x2="161.294" y2="152.306" gradientUnits="userSpaceOnUse">
<stop stop-color="#F9F9F9"/>
<stop offset="1" stop-color="#E8E8E9"/>
<stop offset="1" stop-color="#F1F1F2"/>
</linearGradient>
<linearGradient id="paint7_linear_15877_13482" x1="162.286" y1="147.496" x2="144.495" y2="153.236" gradientUnits="userSpaceOnUse">
<stop stop-color="#D0D0D0"/>
<stop offset="1" stop-color="#D0D0D0" stop-opacity="0"/>
</linearGradient>
<linearGradient id="paint8_linear_15877_13482" x1="69.1307" y1="101.994" x2="83.8329" y2="106.821" gradientUnits="userSpaceOnUse">
<stop stop-color="#A67556"/>
<stop offset="1" stop-color="#B38160" stop-opacity="0"/>
</linearGradient>
<linearGradient id="paint9_linear_15877_13482" x1="83.1176" y1="102.535" x2="78.0175" y2="109.447" gradientUnits="userSpaceOnUse">
<stop stop-color="#785A46"/>
<stop offset="1" stop-color="#785A46" stop-opacity="0"/>
</linearGradient>
<linearGradient id="paint10_linear_15877_13482" x1="75.5268" y1="87.4104" x2="97.4224" y2="84.1367" gradientUnits="userSpaceOnUse">
<stop stop-color="#878380"/>
<stop offset="0.517031" stop-color="#878380" stop-opacity="0.482969"/>
<stop offset="1" stop-color="#878380" stop-opacity="0"/>
</linearGradient>
<linearGradient id="paint11_linear_15877_13482" x1="76.0772" y1="64.5873" x2="82.5966" y2="79.5074" gradientUnits="userSpaceOnUse">
<stop stop-color="#D5D5D5"/>
<stop offset="1" stop-color="#D5D5D5" stop-opacity="0"/>
</linearGradient>
<linearGradient id="paint12_linear_15877_13482" x1="172.73" y1="111.027" x2="158.161" y2="113.124" gradientUnits="userSpaceOnUse">
<stop stop-color="#A67556"/>
<stop offset="1" stop-color="#B38160" stop-opacity="0"/>
</linearGradient>
<linearGradient id="paint13_linear_15877_13482" x1="163.211" y1="108.363" x2="179.481" y2="118.64" gradientUnits="userSpaceOnUse">
<stop stop-color="#785A46"/>
<stop offset="1" stop-color="#9C7256" stop-opacity="0"/>
</linearGradient>
<linearGradient id="paint14_linear_15877_13482" x1="174.571" y1="70.8428" x2="168.897" y2="82.1744" gradientUnits="userSpaceOnUse">
<stop stop-color="#D5D5D5"/>
<stop offset="1" stop-color="#D5D5D5" stop-opacity="0"/>
</linearGradient>
<linearGradient id="paint15_linear_15877_13482" x1="165.589" y1="95.8414" x2="149.041" y2="90.3085" gradientUnits="userSpaceOnUse">
<stop stop-color="#878380"/>
<stop offset="0.517031" stop-color="#878380" stop-opacity="0.482969"/>
<stop offset="1" stop-color="#878380" stop-opacity="0"/>
</linearGradient>
<linearGradient id="paint16_linear_15877_13482" x1="123.641" y1="77.0534" x2="118.536" y2="146.01" gradientUnits="userSpaceOnUse">
<stop stop-color="#FBFBFB"/>
<stop offset="1" stop-color="#EEEEEF"/>
</linearGradient>
<linearGradient id="paint17_linear_15877_13482" x1="153.656" y1="106.108" x2="108.902" y2="138.033" gradientUnits="userSpaceOnUse">
<stop stop-color="#CFCFCF"/>
<stop offset="1" stop-color="#D9D9D9" stop-opacity="0"/>
</linearGradient>
<linearGradient id="paint18_linear_15877_13482" x1="103.518" y1="92.9644" x2="96.9607" y2="111.876" gradientUnits="userSpaceOnUse">
<stop stop-color="#6B4D38"/>
<stop offset="1" stop-color="#6B4D38" stop-opacity="0"/>
</linearGradient>
<linearGradient id="paint19_linear_15877_13482" x1="144.697" y1="116.634" x2="142.771" y2="127.775" gradientUnits="userSpaceOnUse">
<stop stop-color="#5B4332"/>
<stop offset="1" stop-color="#5B4332" stop-opacity="0"/>
</linearGradient>
<linearGradient id="paint20_linear_15877_13482" x1="121.699" y1="97.5938" x2="118.506" y2="129.47" gradientUnits="userSpaceOnUse">
<stop stop-color="#9A7054"/>
<stop offset="0.699576" stop-color="#D7CAC2"/>
<stop offset="1" stop-color="#F1F1F2"/>
</linearGradient>
<linearGradient id="paint21_linear_15877_13482" x1="121.678" y1="98.52" x2="120.107" y2="116.504" gradientUnits="userSpaceOnUse">
<stop stop-color="#9B7154"/>
<stop offset="1" stop-color="white" stop-opacity="0"/>
</linearGradient>
<linearGradient id="paint22_linear_15877_13482" x1="112.126" y1="125.405" x2="106.402" y2="123.844" gradientUnits="userSpaceOnUse">
<stop stop-color="#DBD7D7"/>
<stop offset="1" stop-color="#DBD7D7" stop-opacity="0"/>
</linearGradient>
<linearGradient id="paint23_linear_15877_13482" x1="91.8568" y1="144.281" x2="71.0023" y2="139.391" gradientUnits="userSpaceOnUse">
<stop stop-color="#F9F9F9"/>
<stop offset="1" stop-color="#E8E8E9"/>
<stop offset="1" stop-color="#F1F1F2"/>
</linearGradient>
<linearGradient id="paint24_linear_15877_13482" x1="111.18" y1="146.807" x2="71.0331" y2="139.175" gradientUnits="userSpaceOnUse">
<stop offset="0.291372" stop-color="#F9F9FA"/>
<stop offset="1" stop-color="#E8E8E9"/>
<stop offset="1" stop-color="#F1F1F2"/>
</linearGradient>
<linearGradient id="paint25_linear_15877_13482" x1="84.9586" y1="147.942" x2="72.2939" y2="132.039" gradientUnits="userSpaceOnUse">
<stop stop-color="#D0D0D0"/>
<stop offset="1" stop-color="#D0D0D0" stop-opacity="0"/>
</linearGradient>
<linearGradient id="paint26_linear_15877_13482" x1="54.0981" y1="158.076" x2="55.813" y2="128.433" gradientUnits="userSpaceOnUse">
<stop stop-color="#FEC618"/>
<stop offset="1" stop-color="white" stop-opacity="0"/>
</linearGradient>
<linearGradient id="paint27_linear_15877_13482" x1="141.314" y1="202.419" x2="119.526" y2="181.061" gradientUnits="userSpaceOnUse">
<stop stop-color="#F9F9F9"/>
<stop offset="1" stop-color="#F1F1F2"/>
</linearGradient>
<linearGradient id="paint28_linear_15877_13482" x1="141.314" y1="202.419" x2="131.024" y2="162.731" gradientUnits="userSpaceOnUse">
<stop stop-color="#FAFAFA"/>
<stop offset="0.915991" stop-color="#F7F7F8"/>
</linearGradient>
<linearGradient id="paint29_linear_15877_13482" x1="127.595" y1="196.295" x2="120.98" y2="175.715" gradientUnits="userSpaceOnUse">
<stop stop-color="#D9D9D9"/>
<stop offset="1" stop-color="#D9D9D9" stop-opacity="0"/>
</linearGradient>
<linearGradient id="paint30_linear_15877_13482" x1="107.506" y1="201.929" x2="85.7176" y2="180.57" gradientUnits="userSpaceOnUse">
<stop stop-color="#F9F9F9"/>
<stop offset="1" stop-color="#F1F1F2"/>
</linearGradient>
<linearGradient id="paint31_linear_15877_13482" x1="97.2161" y1="186.74" x2="99.421" y2="164.446" gradientUnits="userSpaceOnUse">
<stop stop-color="#F9F9F9"/>
<stop offset="1" stop-color="#F7F7F8"/>
</linearGradient>
<linearGradient id="paint32_linear_15877_13482" x1="93.7862" y1="195.804" x2="87.1715" y2="175.225" gradientUnits="userSpaceOnUse">
<stop stop-color="#D9D9D9"/>
<stop offset="1" stop-color="#D9D9D9" stop-opacity="0"/>
</linearGradient>
<clipPath id="clip0_15877_13482">
<rect width="11.4551" height="9.10683" fill="white" transform="translate(107.671 150.106)"/>
</clipPath>
<clipPath id="clip1_15877_13482">
<rect width="16.5595" height="24.2375" fill="white" transform="translate(177.419 118.266)"/>
</clipPath>
<clipPath id="clip2_15877_13482">
<rect width="13.6076" height="10.8181" fill="white" transform="translate(178.907 125.697)"/>
</clipPath>
<clipPath id="clip3_15877_13482">
<rect width="6.86913" height="10.0541" fill="white" transform="translate(51.7297 146.135)"/>
</clipPath>
<clipPath id="clip4_15877_13482">
<rect width="5.64638" height="4.48887" fill="white" transform="translate(52.3475 149.219)"/>
</clipPath>
<clipPath id="clip5_15877_13482">
<rect width="10.5144" height="15.3895" fill="white" transform="translate(48.125 56.2551)"/>
</clipPath>
<clipPath id="clip6_15877_13482">
<rect width="8.64278" height="6.87101" fill="white" transform="translate(49.0706 60.9744)"/>
</clipPath>
<clipPath id="clip7_15877_13482">
<rect width="4.73129" height="6.92499" fill="white" transform="translate(40.6848 135.292)"/>
</clipPath>
<clipPath id="clip8_15877_13482">
<rect width="3.88909" height="3.09182" fill="white" transform="translate(41.1104 137.416)"/>
</clipPath>
<clipPath id="clip9_15877_13482">
<rect width="4.01518" height="5.87686" fill="white" transform="translate(54.5581 125.335) rotate(0.674199)"/>
</clipPath>
<clipPath id="clip10_15877_13482">
<rect width="4.95068" height="4.95068" fill="white" transform="translate(54.0863 125.968) rotate(0.674199)"/>
</clipPath>
<clipPath id="clip11_15877_13482">
<rect width="3.30045" height="2.62386" fill="white" transform="translate(54.8977 127.141) rotate(0.674199)"/>
</clipPath>
</defs>
</svg>
