<svg width="24" height="24" viewBox="0 0 24 24" fill="none" xmlns="http://www.w3.org/2000/svg">
  <g clip-path="url(#clip0_15853_20016)">
    <path
      d="M3.5564 13.4965L2.56488 12.5055C2.14504 12.0859 2.14504 11.4074 2.56488 10.9923L11.243 2.3147C11.6628 1.8951 12.3417 1.8951 12.757 2.3147L21.4351 10.9878C21.855 11.4074 21.855 12.0859 21.4351 12.5011L20.4436 13.492C20.0193 13.9161 19.327 13.9072 18.9116 13.4742L13.7888 8.09977V20.9287C13.7888 21.5224 13.3109 22 12.7168 22H11.2876C10.6936 22 10.2157 21.5224 10.2157 20.9287V8.09977L5.08835 13.4786C4.67298 13.9161 3.9807 13.925 3.5564 13.4965Z"
      fill="currentColor" />
  </g>
  <defs>
    <clipPath id="clip0_15853_20016">
      <rect width="19.5" height="20" fill="white" transform="translate(2.25 2)" />
    </clipPath>
  </defs>
</svg>