<svg width="24" height="24" viewBox="0 0 24 24" fill="none" xmlns="http://www.w3.org/2000/svg">
  <g clip-path="url(#clip0_15853_20042)">
    <path
      d="M20.4439 10.5035L21.4352 11.4945C21.8549 11.9141 21.8549 12.5926 21.4352 13.0077L12.7591 21.6853C12.3394 22.1049 11.6606 22.1049 11.2454 21.6853L2.5648 13.0077C2.14507 12.5881 2.14507 11.9096 2.5648 11.4945L3.5561 10.5035C3.98031 10.0795 4.67243 10.0884 5.0877 10.5214L10.2139 15.9002V3.07131C10.2139 2.47763 10.6917 2 11.2856 2H12.7144C13.3083 2 13.7861 2.47763 13.7861 3.07131V15.9002L18.9123 10.5214C19.3276 10.0839 20.0197 10.075 20.4439 10.5035Z"
      fill="currentColor" />
  </g>
  <defs>
    <clipPath id="clip0_15853_20042">
      <rect width="19.5" height="20" fill="white" transform="translate(2.25 2)" />
    </clipPath>
  </defs>
</svg>