<svg width="24" height="24" viewBox="0 0 24 24" fill="none" xmlns="http://www.w3.org/2000/svg">
  <g clip-path="url(#clip0_15853_18999)">
    <path
      d="M11.9996 9.09677C13.6027 9.09677 14.8996 10.3952 14.8996 12C14.8996 13.6048 13.6027 14.9032 11.9996 14.9032C10.3966 14.9032 9.09961 13.6048 9.09961 12C9.09961 10.3952 10.3966 9.09677 11.9996 9.09677ZM9.09961 4.90323C9.09961 6.50806 10.3966 7.80645 11.9996 7.80645C13.6027 7.80645 14.8996 6.50806 14.8996 4.90323C14.8996 3.29839 13.6027 2 11.9996 2C10.3966 2 9.09961 3.29839 9.09961 4.90323ZM9.09961 19.0968C9.09961 20.7016 10.3966 22 11.9996 22C13.6027 22 14.8996 20.7016 14.8996 19.0968C14.8996 17.4919 13.6027 16.1935 11.9996 16.1935C10.3966 16.1935 9.09961 17.4919 9.09961 19.0968Z"
      fill="currentColor" />
  </g>
  <defs>
    <clipPath id="clip0_15853_18999">
      <rect width="5.8" height="20" fill="white" transform="translate(9.09961 2)" />
    </clipPath>
  </defs>
</svg>