<svg width="24" height="24" viewBox="0 0 24 24" fill="none">
  <g clip-path="url(#clip0_15853_19012)">
    <path
      d="M21.8792 11.4928C19.9962 7.81696 16.2684 5.32996 12 5.32996C7.73159 5.32996 4.00276 7.8187 2.12081 11.4931C2.04138 11.6503 2 11.824 2 12.0001C2 12.1763 2.04138 12.35 2.12081 12.5072C4.0038 16.1829 7.73159 18.67 12 18.67C16.2684 18.67 19.9972 16.1812 21.8792 12.5068C21.9586 12.3496 22 12.1759 22 11.9998C22 11.8236 21.9586 11.65 21.8792 11.4928ZM12 17.0025C11.0111 17.0025 10.0444 16.7091 9.22214 16.1594C8.3999 15.6097 7.75903 14.8284 7.38059 13.9143C7.00215 13.0002 6.90314 11.9944 7.09606 11.024C7.28899 10.0536 7.7652 9.16227 8.46446 8.46265C9.16372 7.76304 10.0546 7.2866 11.0245 7.09358C11.9945 6.90056 12.9998 6.99962 13.9134 7.37825C14.8271 7.75688 15.6079 8.39806 16.1574 9.22072C16.7068 10.0434 17 11.0106 17 12C17.0003 12.657 16.8712 13.3076 16.6201 13.9147C16.3689 14.5218 16.0006 15.0734 15.5363 15.538C15.0719 16.0026 14.5206 16.371 13.9138 16.6223C13.307 16.8736 12.6567 17.0028 12 17.0025ZM12 8.66496C11.7025 8.66912 11.4069 8.7134 11.1212 8.79662C11.3567 9.1168 11.4697 9.51083 11.4397 9.90722C11.4097 10.3036 11.2388 10.6762 10.9578 10.9572C10.6769 11.2383 10.3045 11.4094 9.90831 11.4394C9.51211 11.4694 9.11828 11.3563 8.79826 11.1207C8.61602 11.7924 8.64892 12.5044 8.89231 13.1564C9.13571 13.8085 9.57735 14.3677 10.1551 14.7555C10.7328 15.1432 11.4175 15.34 12.1128 15.318C12.8082 15.296 13.4791 15.0564 14.0312 14.633C14.5833 14.2095 14.9888 13.6235 15.1906 12.9574C15.3923 12.2913 15.3803 11.5786 15.156 10.9198C14.9318 10.2609 14.5066 9.68895 13.9405 9.28447C13.3744 8.87999 12.6957 8.66332 12 8.66496Z"
      fill="currentColor" />
  </g>
  <defs>
    <clipPath id="clip0_15853_19012">
      <rect width="20" height="13.34" fill="white" transform="translate(2 5.32996)" />
    </clipPath>
  </defs>
</svg>