<svg width="24" height="24" viewBox="0 0 24 24" fill="none" xmlns="http://www.w3.org/2000/svg">
  <g clip-path="url(#clip0_15853_18816)">
    <path
      d="M21.9931 11.9829C21.9931 12.5981 21.4722 13.0801 20.8819 13.0801H19.7708L19.7951 18.5522C19.7951 18.6479 19.7882 18.7368 19.7778 18.8291V19.3828C19.7778 20.1382 19.1562 20.75 18.3889 20.75H17.8333C17.7951 20.75 17.7569 20.7192 17.7187 20.7466C17.6701 20.7192 17.6215 20.75 17.5729 20.75H15.6111C14.8437 20.75 14.2222 20.1382 14.2222 19.3828V16.375C14.2222 15.77 13.7257 15.2812 13.1111 15.2812H10.8889C10.2743 15.2812 9.77778 15.77 9.77778 16.375V19.3828C9.77778 20.1382 9.15625 20.75 8.38889 20.75H6.44792C6.39583 20.75 6.34375 20.7466 6.29167 20.7432C6.25 20.7466 6.20833 20.75 6.16667 20.75H5.61111C4.8441 20.75 4.22222 20.1382 4.22222 19.3828V15.5547C4.22222 15.5239 4.22326 15.4897 4.22535 15.459V13.0801H3.11285C2.48681 13.0801 2 12.5981 2 11.9829C2 11.6753 2.10431 11.4019 2.34757 11.1626L11.25 3.52398C11.4931 3.28425 11.7708 3.25 12.0139 3.25C12.2569 3.25 12.5347 3.3185 12.7465 3.48974L21.6111 11.1626C21.8889 11.4019 22.0312 11.6753 21.9931 11.9829Z"
      fill="currentColor" />
  </g>
  <defs>
    <clipPath id="clip0_15853_18816">
      <rect width="20" height="17.5" fill="white" transform="translate(2 3.25)" />
    </clipPath>
  </defs>
</svg>