<svg width="24" height="24" viewBox="0 0 24 24" fill="none" xmlns="http://www.w3.org/2000/svg">
  <g clip-path="url(#clip0_15853_18729)">
    <path
      d="M7.93786 6.6875C6.90231 6.6875 6.06286 7.52695 6.06286 8.5625C6.06286 9.59805 6.90231 10.4375 7.93786 10.4375C8.9734 10.4375 9.81286 9.59805 9.81286 8.5625C9.81286 7.52695 8.97301 6.6875 7.93786 6.6875ZM19.4652 3.25H4.4652C3.1195 3.25 2 4.36914 2 5.75V18.25C2 19.6309 3.11914 20.75 4.46484 20.75H19.4648C20.8457 20.75 21.9648 19.6309 21.9648 18.25V5.75C21.9652 4.36914 20.8793 3.25 19.4652 3.25ZM20.0902 17.9883L14.7464 10.7266C14.6488 10.5469 14.4261 10.4375 14.1879 10.4375C13.9491 10.4375 13.7261 10.5456 13.5937 10.7257L9.42965 16.3546L7.98082 14.5539C7.84641 14.3867 7.63184 14.2879 7.40387 14.2879C7.17567 14.2879 6.96129 14.3867 6.82653 14.5539L3.87653 18.2183C3.87653 18.2172 3.87653 18.2195 3.87653 18.2183L3.87496 5.75C3.87496 5.40539 4.15536 5.125 4.49996 5.125H19.5C19.8446 5.125 20.125 5.40539 20.125 5.75V17.9883H20.0902Z"
      fill="currentColor" />
  </g>
  <defs>
    <clipPath id="clip0_15853_18729">
      <rect width="20" height="20" fill="white" transform="translate(2 2)" />
    </clipPath>
  </defs>
</svg>