<svg width="24" height="24" viewBox="0 0 24 24" fill="none" xmlns="http://www.w3.org/2000/svg">
  <g clip-path="url(#clip0_15853_18725)">
    <path
      d="M9.54112 4.22133L2.04947 11.7095C1.98317 11.7758 1.98356 11.8833 2.05033 11.9491L4.76543 14.6242C4.83152 14.6893 4.9378 14.6889 5.00342 14.6233L9.6246 10.0043C9.6892 9.9397 9.79345 9.93819 9.85991 10.0009L11.9784 11.9985L6.90555 16.9454C6.83888 17.0104 6.83745 17.1171 6.90234 17.1839L9.54099 19.8989C9.60501 19.9647 9.70989 19.9674 9.77715 19.9049L11.9492 17.8862C12.0135 17.8264 12.1128 17.8259 12.1778 17.8849L14.2661 19.7824C14.3328 19.8431 14.4353 19.8406 14.4991 19.7769L21.9505 12.3289C22.0165 12.263 22.0165 12.1561 21.9505 12.0902L19.2754 9.41633C19.2097 9.35062 19.1031 9.35037 19.0371 9.41583L14.3757 14.0349C14.3106 14.0994 14.2058 14.1002 14.1397 14.0366L12.0207 11.9985L17.0934 7.09305C17.1602 7.02845 17.1623 6.92205 17.098 6.85495L14.4602 4.1021C14.3955 4.0346 14.2883 4.03247 14.221 4.09734L12.0934 6.14798C12.0289 6.21016 11.9271 6.21115 11.8613 6.15025L9.77538 4.21691C9.70883 4.1552 9.60534 4.15715 9.54112 4.22133Z"
      fill="#4343EF" />
  </g>
  <defs>
    <clipPath id="clip0_15853_18725">
      <rect width="20" height="15.9" fill="white" transform="translate(2 4.05005)" />
    </clipPath>
  </defs>
</svg>