<svg width="24" height="24" viewBox="0 0 24 24" fill="none" xmlns="http://www.w3.org/2000/svg">
  <g clip-path="url(#clip0_15853_18291)">
    <path
      d="M21.6038 12.0012C21.6038 11.8004 21.5457 11.6039 21.4366 11.4353C21.3275 11.2667 21.1719 11.1333 20.9887 11.051L4.06483 3.42077L4.06237 3.41832C3.86637 3.33121 3.64826 3.30672 3.43782 3.34821C3.22738 3.3897 3.03489 3.49514 2.88662 3.65012C2.73834 3.80511 2.64153 4.00209 2.6094 4.21415C2.57727 4.42622 2.61138 4.64303 2.70708 4.83499L2.71568 4.85156L5.13009 10.8647C5.18733 10.9719 5.27167 11.0621 5.37469 11.1265C5.47771 11.1908 5.59581 11.227 5.7172 11.2315L18.7818 11.6928C18.8221 11.6928 18.862 11.7007 18.8992 11.7161C18.9365 11.7315 18.9703 11.7541 18.9988 11.7826C19.0273 11.8111 19.0499 11.845 19.0653 11.8822C19.0808 11.9195 19.0887 11.9594 19.0887 11.9997C19.0887 12.04 19.0808 12.0799 19.0653 12.1171C19.0499 12.1543 19.0273 12.1882 18.9988 12.2167C18.9703 12.2452 18.9365 12.2678 18.8992 12.2832C18.862 12.2986 18.8221 12.3066 18.7818 12.3066L5.71996 12.7645C5.59857 12.7689 5.48047 12.8051 5.37745 12.8695C5.27443 12.9338 5.19009 13.0241 5.13285 13.1312L2.7166 19.1475C2.7123 19.1554 2.70862 19.1628 2.70494 19.1708C2.51864 19.5535 2.56652 20.0028 2.85348 20.3168L2.88417 20.3475C3.03498 20.5 3.2282 20.6036 3.43871 20.6449C3.64921 20.6862 3.86727 20.6632 4.06452 20.5789L20.9844 12.9514C21.1684 12.8698 21.3249 12.7366 21.4348 12.568C21.5447 12.3993 21.6034 12.2025 21.6038 12.0012Z"
      fill="currentColor" />
  </g>
  <defs>
    <clipPath id="clip0_15853_18291">
      <rect width="20" height="17.7778" fill="white" transform="translate(2 3.11011)" />
    </clipPath>
  </defs>
</svg>