<svg width="24" height="24" viewBox="0 0 24 24" fill="none" xmlns="http://www.w3.org/2000/svg">
  <g clip-path="url(#clip0_15853_18117)">
    <path
      d="M4.93929 20.2087C2.65687 17.8537 2.69941 14.0559 4.99343 11.7094L13.1872 3.32814C14.9183 1.55736 17.7321 1.55721 19.4634 3.32814C21.1778 5.08182 21.1799 7.91131 19.4634 9.66705L12.3209 16.966C11.1546 18.1588 9.24925 18.1422 8.1028 16.927C6.99831 15.7563 7.03374 13.9007 8.15952 12.7491L13.7745 7.01338C14.016 6.76674 14.4117 6.76252 14.6583 7.00397L15.5513 7.87815C15.798 8.11963 15.8022 8.51533 15.5607 8.76197L9.94636 14.4972C9.7537 14.6942 9.74183 15.0217 9.92105 15.2117C10.0918 15.3927 10.3603 15.3957 10.5339 15.2181L17.6764 7.91928C18.4425 7.13561 18.4425 5.85971 17.676 5.07561C16.9264 4.30893 15.7245 4.30854 14.9746 5.07561L6.78085 13.4569C5.42292 14.8459 5.40198 17.0944 6.73433 18.4691C8.06284 19.8399 10.2103 19.8416 11.5413 18.4803L18.2624 11.6053C18.5037 11.3585 18.8994 11.354 19.1462 11.5953L20.0398 12.4689C20.2867 12.7102 20.2912 13.1059 20.0498 13.3527L13.3287 20.2276C11.0016 22.608 7.23722 22.5798 4.93929 20.2087Z"
      fill="currentColor" />
  </g>
  <defs>
    <clipPath id="clip0_15853_18117">
      <rect width="20" height="20" fill="white" transform="translate(2 2)" />
    </clipPath>
  </defs>
</svg>