<svg width="24" height="24" viewBox="0 0 24 24" fill="none" xmlns="http://www.w3.org/2000/svg">
  <path
    d="M11.4437 17.4446C12.0583 17.4446 12.5548 16.948 12.5548 16.3334C12.5548 15.7189 12.0583 15.2223 11.4437 15.2223H7.55478C6.9402 15.2223 6.44367 14.7258 6.44367 14.1112V9.66678H7.55478C8.0027 9.66678 8.40895 9.39594 8.58256 8.97928C8.75617 8.56261 8.65895 8.08691 8.34298 7.76747L6.12076 5.54525C5.68673 5.11122 4.98187 5.11122 4.54784 5.54525L2.32562 7.76747C2.00617 8.08691 1.91242 8.56261 2.08603 8.97928C2.25965 9.39594 2.66242 9.66678 3.11381 9.66678H4.22492V14.1112C4.22492 15.9515 5.71798 17.4446 7.55826 17.4446H11.4437ZM12.5548 6.33344C11.9402 6.33344 11.4437 6.82997 11.4437 7.44455C11.4437 8.05914 11.9402 8.55566 12.5548 8.55566H16.4437C17.0583 8.55566 17.5548 9.05219 17.5548 9.66678V14.1112H16.4437C15.9958 14.1112 15.5895 14.3821 15.4159 14.7987C15.2423 15.2154 15.3395 15.6911 15.6555 16.0105L17.8777 18.2327C18.3117 18.6668 19.0166 18.6668 19.4506 18.2327L21.6728 16.0105C21.9923 15.6911 22.086 15.2154 21.9124 14.7987C21.7388 14.3821 21.336 14.1112 20.8846 14.1112H19.7735V9.66678C19.7735 7.8265 18.2805 6.33344 16.4402 6.33344H12.5548Z"
    fill="currentColor" />
</svg>